<svg width="637" height="1017" viewBox="0 0 637 1017" fill="none" xmlns="http://www.w3.org/2000/svg">
<g filter="url(#filter0_d)">
<g opacity="0.16" clip-path="url(#clip0)">
<path d="M80.5208 486.968C79.89 487.173 79.2467 487.426 78.6549 487.768C77.5304 488.417 74.5417 490.143 74.1866 490.348L76.1237 493.703C77.3074 493.019 78.4615 492.353 79.6451 491.67C80.7104 491.055 81.4582 491.256 82.0878 492.279C82.1392 492.368 82.482 492.961 82.9106 493.704L86.58 491.585L84.9857 488.824C84.8314 488.557 84.6646 488.336 84.4808 488.086C83.443 486.904 82.083 486.462 80.5208 486.968ZM88.2763 502.997C88.8639 504.083 88.6476 504.802 87.5823 505.417C85.8068 506.442 84.0313 507.467 82.2558 508.492C80.4803 509.518 78.7048 510.543 76.9589 511.551C75.8936 512.166 75.1459 511.964 74.5163 510.942C74.4649 510.853 69.9049 502.955 69.0992 501.559C68.7049 500.876 68.3792 500.312 68.3277 500.223C67.7402 499.137 67.9565 498.418 69.0218 497.803C70.1167 497.171 71.182 496.556 72.2768 495.924L70.3397 492.569C70.0438 492.739 67.2326 494.362 66.1081 495.012C65.5163 495.353 64.9759 495.784 64.4822 496.228C63.2629 497.327 62.9657 498.726 63.5176 500.229C63.6423 500.513 63.7498 500.768 63.9041 501.035L65.327 503.499L65.4812 503.767L71.6012 514.367C71.7555 514.634 71.9223 514.854 72.1061 515.105C73.161 516.317 74.4914 516.776 76.0537 516.27C76.6845 516.064 77.3277 515.811 77.9196 515.47C79.0144 514.838 80.1389 514.188 81.2634 513.539C82.2399 512.975 83.2164 512.412 84.1929 511.848C85.1695 511.284 86.146 510.72 87.1225 510.156C88.247 509.507 89.3419 508.875 90.4663 508.226C91.0582 507.884 91.5986 507.453 92.0922 507.01C93.3116 505.91 93.6087 504.511 93.0569 503.009C92.9618 502.707 92.8246 502.47 92.6704 502.203L91.0761 499.441L87.4067 501.56C87.8992 502.344 88.242 502.938 88.2763 502.997ZM108.765 481.627L98.8814 487.333L100.767 490.6L110.651 484.893L108.765 481.627ZM49.0087 532.161L52.6189 530.077L40.8246 509.649L37.2144 511.733L49.0087 532.161ZM70.8829 519.136C66.8121 517.211 62.7709 515.268 58.7173 513.373C58.4322 513.221 58.3169 513.089 58.3277 512.766C58.5944 508.376 58.844 503.956 59.0639 499.554C59.0717 499.43 59.0623 499.278 59.0825 499.108C57.6621 499.928 56.3009 500.713 54.9693 501.482C54.8805 501.534 54.8432 501.674 54.8183 501.767C54.7826 502.184 54.764 502.63 54.7283 503.047C54.5499 505.881 54.3887 508.746 54.2104 511.58C54.153 512.643 53.6657 513.439 52.7016 513.956C52.672 513.973 48.9435 516.126 48.9435 516.126L50.8635 519.451C51.1594 519.28 51.8992 518.853 52.3135 518.614C52.9053 518.272 54.0298 517.623 54.6216 517.281C55.4206 516.82 56.243 516.741 57.1232 517.104C57.374 517.197 57.5953 517.306 57.8632 517.429C60.845 518.835 63.7801 520.228 66.7152 521.622C66.8725 521.689 67.0891 521.723 67.237 521.637C68.5858 520.898 69.9003 520.1 71.2911 519.297C71.1041 519.246 70.9935 519.191 70.8829 519.136ZM92.3399 484.34L108.674 474.91L106.771 471.614L86.7677 483.163L98.5448 503.562L118.549 492.012L116.629 488.687L100.294 498.118L92.3399 484.34ZM132.85 460.199C131.795 458.987 130.465 458.528 128.903 459.034C128.272 459.24 127.629 459.493 127.037 459.834C121.622 462.961 116.177 466.104 110.762 469.231L110.436 469.419L122.23 489.847L125.87 487.746L116.013 470.673C116.102 470.621 116.173 470.541 116.233 470.506C120.168 468.234 124.074 465.979 128.01 463.707C129.075 463.092 129.823 463.293 130.453 464.315C130.59 464.553 133.277 469.138 133.397 469.346C133.534 469.584 133.671 469.821 133.778 470.076C134.366 471.162 134.15 471.881 133.084 472.496C130.303 474.102 127.521 475.707 124.74 477.313L126.677 480.669C129.784 478.875 132.891 477.081 135.998 475.287C136.59 474.945 137.147 474.544 137.641 474.101C138.86 473.001 139.158 471.602 138.606 470.1C138.481 469.815 138.373 469.561 138.219 469.293L136.608 466.502L134.739 463.266L133.368 460.891C133.201 460.67 133.034 460.45 132.85 460.199Z" fill="#1A1919"/>
</g>
<g opacity="0.16" clip-path="url(#clip1)">
<path d="M298.521 356.968C297.89 357.173 297.247 357.426 296.655 357.768C295.53 358.417 292.542 360.143 292.187 360.348L294.124 363.703C295.307 363.019 296.461 362.353 297.645 361.67C298.71 361.055 299.458 361.256 300.088 362.279C300.139 362.368 300.482 362.961 300.911 363.704L304.58 361.585L302.986 358.824C302.831 358.557 302.665 358.336 302.481 358.086C301.443 356.904 300.083 356.462 298.521 356.968ZM306.276 372.997C306.864 374.083 306.648 374.802 305.582 375.417C303.807 376.442 302.031 377.467 300.256 378.492C298.48 379.518 296.705 380.543 294.959 381.551C293.894 382.166 293.146 381.964 292.516 380.942C292.465 380.853 287.905 372.955 287.099 371.559C286.705 370.876 286.379 370.312 286.328 370.223C285.74 369.137 285.956 368.418 287.022 367.803C288.117 367.171 289.182 366.556 290.277 365.924L288.34 362.569C288.044 362.739 285.233 364.362 284.108 365.012C283.516 365.353 282.976 365.784 282.482 366.228C281.263 367.327 280.966 368.726 281.518 370.229C281.642 370.513 281.75 370.768 281.904 371.035L283.327 373.499L283.481 373.767L289.601 384.367C289.756 384.634 289.922 384.854 290.106 385.105C291.161 386.317 292.491 386.776 294.054 386.27C294.684 386.064 295.328 385.811 295.92 385.47C297.014 384.838 298.139 384.188 299.263 383.539C300.24 382.975 301.216 382.412 302.193 381.848C303.169 381.284 304.146 380.72 305.122 380.156C306.247 379.507 307.342 378.875 308.466 378.226C309.058 377.884 309.599 377.453 310.092 377.01C311.312 375.91 311.609 374.511 311.057 373.009C310.962 372.707 310.825 372.47 310.67 372.203L309.076 369.441L305.407 371.56C305.899 372.344 306.242 372.938 306.276 372.997ZM326.765 351.627L316.881 357.333L318.767 360.6L328.651 354.893L326.765 351.627ZM267.009 402.161L270.619 400.077L258.825 379.649L255.214 381.733L267.009 402.161ZM288.883 389.136C284.812 387.211 280.771 385.268 276.717 383.373C276.432 383.221 276.317 383.089 276.328 382.766C276.594 378.376 276.844 373.956 277.064 369.554C277.072 369.43 277.062 369.278 277.082 369.108C275.662 369.928 274.301 370.713 272.969 371.482C272.881 371.534 272.843 371.674 272.818 371.767C272.783 372.184 272.764 372.63 272.728 373.047C272.55 375.881 272.389 378.746 272.21 381.58C272.153 382.643 271.666 383.439 270.702 383.956C270.672 383.973 266.944 386.126 266.944 386.126L268.864 389.451C269.159 389.28 269.899 388.853 270.313 388.614C270.905 388.272 272.03 387.623 272.622 387.281C273.421 386.82 274.243 386.741 275.123 387.104C275.374 387.197 275.595 387.306 275.863 387.429C278.845 388.835 281.78 390.228 284.715 391.622C284.873 391.689 285.089 391.723 285.237 391.637C286.586 390.898 287.9 390.1 289.291 389.297C289.104 389.246 288.994 389.191 288.883 389.136ZM310.34 354.34L326.674 344.91L324.771 341.614L304.768 353.163L316.545 373.562L336.549 362.012L334.629 358.687L318.294 368.118L310.34 354.34ZM350.85 330.199C349.795 328.987 348.465 328.528 346.903 329.034C346.272 329.24 345.629 329.493 345.037 329.834C339.622 332.961 334.177 336.104 328.762 339.231L328.436 339.419L340.23 359.847L343.87 357.746L334.013 340.673C334.102 340.621 334.173 340.541 334.233 340.506C338.168 338.234 342.074 335.979 346.01 333.707C347.075 333.092 347.823 333.293 348.453 334.315C348.59 334.553 351.277 339.138 351.397 339.346C351.534 339.584 351.671 339.821 351.778 340.076C352.366 341.162 352.15 341.881 351.084 342.496C348.303 344.102 345.521 345.707 342.74 347.313L344.677 350.669C347.784 348.875 350.891 347.081 353.998 345.287C354.59 344.945 355.147 344.544 355.641 344.101C356.86 343.001 357.158 341.602 356.606 340.1C356.481 339.815 356.373 339.561 356.219 339.293L354.608 336.502L352.739 333.266L351.368 330.891C351.201 330.67 351.034 330.45 350.85 330.199Z" fill="#1A1919"/>
</g>
<g opacity="0.16" clip-path="url(#clip2)">
<path d="M516.521 226.968C515.89 227.173 515.247 227.426 514.655 227.768C513.53 228.417 510.542 230.143 510.187 230.348L512.124 233.703C513.307 233.019 514.461 232.353 515.645 231.67C516.71 231.055 517.458 231.256 518.088 232.279C518.139 232.368 518.482 232.961 518.911 233.704L522.58 231.585L520.986 228.824C520.831 228.557 520.665 228.336 520.481 228.086C519.443 226.904 518.083 226.462 516.521 226.968ZM524.276 242.997C524.864 244.083 524.648 244.802 523.582 245.417C521.807 246.442 520.031 247.467 518.256 248.492C516.48 249.518 514.705 250.543 512.959 251.551C511.894 252.166 511.146 251.964 510.516 250.942C510.465 250.853 505.905 242.955 505.099 241.559C504.705 240.876 504.379 240.312 504.328 240.223C503.74 239.137 503.956 238.418 505.022 237.803C506.117 237.171 507.182 236.556 508.277 235.924L506.34 232.569C506.044 232.739 503.233 234.362 502.108 235.012C501.516 235.353 500.976 235.784 500.482 236.228C499.263 237.327 498.966 238.726 499.518 240.229C499.642 240.513 499.75 240.768 499.904 241.035L501.327 243.499L501.481 243.767L507.601 254.367C507.756 254.634 507.922 254.854 508.106 255.105C509.161 256.317 510.491 256.776 512.054 256.27C512.684 256.064 513.328 255.811 513.92 255.47C515.014 254.838 516.139 254.188 517.263 253.539C518.24 252.975 519.216 252.412 520.193 251.848C521.169 251.284 522.146 250.72 523.122 250.156C524.247 249.507 525.342 248.875 526.466 248.226C527.058 247.884 527.599 247.453 528.092 247.01C529.312 245.91 529.609 244.511 529.057 243.009C528.962 242.707 528.825 242.47 528.67 242.203L527.076 239.441L523.407 241.56C523.899 242.344 524.242 242.938 524.276 242.997ZM544.765 221.627L534.881 227.333L536.767 230.6L546.651 224.893L544.765 221.627ZM485.009 272.161L488.619 270.077L476.825 249.649L473.214 251.733L485.009 272.161ZM506.883 259.136C502.812 257.211 498.771 255.268 494.717 253.373C494.432 253.221 494.317 253.089 494.328 252.766C494.594 248.376 494.844 243.956 495.064 239.554C495.072 239.43 495.062 239.278 495.082 239.108C493.662 239.928 492.301 240.713 490.969 241.482C490.881 241.534 490.843 241.674 490.818 241.767C490.783 242.184 490.764 242.63 490.728 243.047C490.55 245.881 490.389 248.746 490.21 251.58C490.153 252.643 489.666 253.439 488.702 253.956C488.672 253.973 484.944 256.126 484.944 256.126L486.864 259.451C487.159 259.28 487.899 258.853 488.313 258.614C488.905 258.272 490.03 257.623 490.622 257.281C491.421 256.82 492.243 256.741 493.123 257.104C493.374 257.197 493.595 257.306 493.863 257.429C496.845 258.835 499.78 260.228 502.715 261.622C502.873 261.689 503.089 261.723 503.237 261.637C504.586 260.898 505.9 260.1 507.291 259.297C507.104 259.246 506.994 259.191 506.883 259.136ZM528.34 224.34L544.674 214.91L542.771 211.614L522.768 223.163L534.545 243.562L554.549 232.012L552.629 228.687L536.294 238.118L528.34 224.34ZM568.85 200.199C567.795 198.987 566.465 198.528 564.903 199.034C564.272 199.24 563.629 199.493 563.037 199.834C557.622 202.961 552.177 206.104 546.762 209.231L546.436 209.419L558.23 229.847L561.87 227.746L552.013 210.673C552.102 210.621 552.173 210.541 552.233 210.506C556.168 208.234 560.074 205.979 564.01 203.707C565.075 203.092 565.823 203.293 566.453 204.315C566.59 204.553 569.277 209.138 569.397 209.346C569.534 209.584 569.671 209.821 569.778 210.076C570.366 211.162 570.15 211.881 569.084 212.496C566.303 214.102 563.521 215.707 560.74 217.313L562.677 220.669C565.784 218.875 568.891 217.081 571.998 215.287C572.59 214.945 573.147 214.544 573.641 214.101C574.86 213.001 575.158 211.602 574.606 210.1C574.481 209.815 574.373 209.561 574.219 209.293L572.608 206.502L570.739 203.266L569.368 200.891C569.201 200.67 569.034 200.45 568.85 200.199Z" fill="#1A1919"/>
</g>
<g opacity="0.16" clip-path="url(#clip3)">
<path d="M133.521 289.968C132.89 290.173 132.247 290.426 131.655 290.768C130.53 291.417 127.542 293.143 127.187 293.348L129.124 296.703C130.307 296.019 131.461 295.353 132.645 294.67C133.71 294.055 134.458 294.256 135.088 295.279C135.139 295.368 135.482 295.961 135.911 296.704L139.58 294.585L137.986 291.824C137.831 291.557 137.665 291.336 137.481 291.086C136.443 289.904 135.083 289.462 133.521 289.968ZM141.276 305.997C141.864 307.083 141.648 307.802 140.582 308.417C138.807 309.442 137.031 310.467 135.256 311.492C133.48 312.518 131.705 313.543 129.959 314.551C128.894 315.166 128.146 314.964 127.516 313.942C127.465 313.853 122.905 305.955 122.099 304.559C121.705 303.876 121.379 303.312 121.328 303.223C120.74 302.137 120.956 301.418 122.022 300.803C123.117 300.171 124.182 299.556 125.277 298.924L123.34 295.569C123.044 295.739 120.233 297.362 119.108 298.012C118.516 298.353 117.976 298.784 117.482 299.228C116.263 300.327 115.966 301.726 116.518 303.229C116.642 303.513 116.75 303.768 116.904 304.035L118.327 306.499L118.481 306.767L124.601 317.367C124.756 317.634 124.922 317.854 125.106 318.105C126.161 319.317 127.491 319.776 129.054 319.27C129.684 319.064 130.328 318.811 130.92 318.47C132.014 317.838 133.139 317.188 134.263 316.539C135.24 315.975 136.216 315.412 137.193 314.848C138.169 314.284 139.146 313.72 140.122 313.156C141.247 312.507 142.342 311.875 143.466 311.226C144.058 310.884 144.599 310.453 145.092 310.01C146.312 308.91 146.609 307.511 146.057 306.009C145.962 305.707 145.825 305.47 145.67 305.203L144.076 302.441L140.407 304.56C140.899 305.344 141.242 305.938 141.276 305.997ZM161.765 284.627L151.881 290.333L153.767 293.6L163.651 287.893L161.765 284.627ZM102.009 335.161L105.619 333.077L93.8246 312.649L90.2144 314.733L102.009 335.161ZM123.883 322.136C119.812 320.211 115.771 318.268 111.717 316.373C111.432 316.221 111.317 316.089 111.328 315.766C111.594 311.376 111.844 306.956 112.064 302.554C112.072 302.43 112.062 302.278 112.082 302.108C110.662 302.928 109.301 303.713 107.969 304.482C107.881 304.534 107.843 304.674 107.818 304.767C107.783 305.184 107.764 305.63 107.728 306.047C107.55 308.881 107.389 311.746 107.21 314.58C107.153 315.643 106.666 316.439 105.702 316.956C105.672 316.973 101.944 319.126 101.944 319.126L103.864 322.451C104.159 322.28 104.899 321.853 105.313 321.614C105.905 321.272 107.03 320.623 107.622 320.281C108.421 319.82 109.243 319.741 110.123 320.104C110.374 320.197 110.595 320.306 110.863 320.429C113.845 321.835 116.78 323.228 119.715 324.622C119.873 324.689 120.089 324.723 120.237 324.637C121.586 323.898 122.9 323.1 124.291 322.297C124.104 322.246 123.994 322.191 123.883 322.136ZM145.34 287.34L161.674 277.91L159.771 274.614L139.768 286.163L151.545 306.562L171.549 295.012L169.629 291.687L153.294 301.118L145.34 287.34ZM185.85 263.199C184.795 261.987 183.465 261.528 181.903 262.034C181.272 262.24 180.629 262.493 180.037 262.834C174.622 265.961 169.177 269.104 163.762 272.231L163.436 272.419L175.23 292.847L178.87 290.746L169.013 273.673C169.102 273.621 169.173 273.541 169.233 273.506C173.168 271.234 177.074 268.979 181.01 266.707C182.075 266.092 182.823 266.293 183.453 267.315C183.59 267.553 186.277 272.138 186.397 272.346C186.534 272.584 186.671 272.821 186.778 273.076C187.366 274.162 187.15 274.881 186.084 275.496C183.303 277.102 180.521 278.707 177.74 280.313L179.677 283.669C182.784 281.875 185.891 280.081 188.998 278.287C189.59 277.945 190.147 277.544 190.641 277.101C191.86 276.001 192.158 274.602 191.606 273.1C191.481 272.815 191.373 272.561 191.219 272.293L189.608 269.502L187.739 266.266L186.368 263.891C186.201 263.67 186.034 263.45 185.85 263.199Z" fill="#1A1919"/>
</g>
<g opacity="0.16" clip-path="url(#clip4)">
<path d="M351.521 159.968C350.89 160.173 350.247 160.426 349.655 160.768C348.53 161.417 345.542 163.143 345.187 163.348L347.124 166.703C348.307 166.019 349.461 165.353 350.645 164.67C351.71 164.055 352.458 164.256 353.088 165.279C353.139 165.368 353.482 165.961 353.911 166.704L357.58 164.585L355.986 161.824C355.831 161.557 355.665 161.336 355.481 161.086C354.443 159.904 353.083 159.462 351.521 159.968ZM359.276 175.997C359.864 177.083 359.648 177.802 358.582 178.417C356.807 179.442 355.031 180.467 353.256 181.492C351.48 182.518 349.705 183.543 347.959 184.551C346.894 185.166 346.146 184.964 345.516 183.942C345.465 183.853 340.905 175.955 340.099 174.559C339.705 173.876 339.379 173.312 339.328 173.223C338.74 172.137 338.956 171.418 340.022 170.803C341.117 170.171 342.182 169.556 343.277 168.924L341.34 165.569C341.044 165.739 338.233 167.362 337.108 168.012C336.516 168.353 335.976 168.784 335.482 169.228C334.263 170.327 333.966 171.726 334.518 173.229C334.642 173.513 334.75 173.768 334.904 174.035L336.327 176.499L336.481 176.767L342.601 187.367C342.756 187.634 342.922 187.854 343.106 188.105C344.161 189.317 345.491 189.776 347.054 189.27C347.684 189.064 348.328 188.811 348.92 188.47C350.014 187.838 351.139 187.188 352.263 186.539C353.24 185.975 354.216 185.412 355.193 184.848C356.169 184.284 357.146 183.72 358.122 183.156C359.247 182.507 360.342 181.875 361.466 181.226C362.058 180.884 362.599 180.453 363.092 180.01C364.312 178.91 364.609 177.511 364.057 176.009C363.962 175.707 363.825 175.47 363.67 175.203L362.076 172.441L358.407 174.56C358.899 175.344 359.242 175.938 359.276 175.997ZM379.765 154.627L369.881 160.333L371.767 163.6L381.651 157.893L379.765 154.627ZM320.009 205.161L323.619 203.077L311.825 182.649L308.214 184.733L320.009 205.161ZM341.883 192.136C337.812 190.211 333.771 188.268 329.717 186.373C329.432 186.221 329.317 186.089 329.328 185.766C329.594 181.376 329.844 176.956 330.064 172.554C330.072 172.43 330.062 172.278 330.082 172.108C328.662 172.928 327.301 173.713 325.969 174.482C325.881 174.534 325.843 174.674 325.818 174.767C325.783 175.184 325.764 175.63 325.728 176.047C325.55 178.881 325.389 181.746 325.21 184.58C325.153 185.643 324.666 186.439 323.702 186.956C323.672 186.973 319.944 189.126 319.944 189.126L321.864 192.451C322.159 192.28 322.899 191.853 323.313 191.614C323.905 191.272 325.03 190.623 325.622 190.281C326.421 189.82 327.243 189.741 328.123 190.104C328.374 190.197 328.595 190.306 328.863 190.429C331.845 191.835 334.78 193.228 337.715 194.622C337.873 194.689 338.089 194.723 338.237 194.637C339.586 193.898 340.9 193.1 342.291 192.297C342.104 192.246 341.994 192.191 341.883 192.136ZM363.34 157.34L379.674 147.91L377.771 144.614L357.768 156.163L369.545 176.562L389.549 165.012L387.629 161.687L371.294 171.118L363.34 157.34ZM403.85 133.199C402.795 131.987 401.465 131.528 399.903 132.034C399.272 132.24 398.629 132.493 398.037 132.834C392.622 135.961 387.177 139.104 381.762 142.231L381.436 142.419L393.23 162.847L396.87 160.746L387.013 143.673C387.102 143.621 387.173 143.541 387.233 143.506C391.168 141.234 395.074 138.979 399.01 136.707C400.075 136.092 400.823 136.293 401.453 137.315C401.59 137.553 404.277 142.138 404.397 142.346C404.534 142.584 404.671 142.821 404.778 143.076C405.366 144.162 405.15 144.881 404.084 145.496C401.303 147.102 398.521 148.707 395.74 150.313L397.677 153.669C400.784 151.875 403.891 150.081 406.998 148.287C407.59 147.945 408.147 147.544 408.641 147.101C409.86 146.001 410.158 144.602 409.606 143.1C409.481 142.815 409.373 142.561 409.219 142.293L407.608 139.502L405.739 136.266L404.368 133.891C404.201 133.67 404.034 133.45 403.85 133.199Z" fill="#1A1919"/>
</g>
<g opacity="0.16" clip-path="url(#clip5)">
<path d="M569.521 29.9676C568.89 30.1735 568.247 30.4261 567.655 30.7678C566.53 31.417 563.542 33.1426 563.187 33.3476L565.124 36.7028C566.307 36.0194 567.461 35.3531 568.645 34.6697C569.71 34.0547 570.458 34.2564 571.088 35.2786C571.139 35.3676 571.482 35.9615 571.911 36.7038L575.58 34.5853L573.986 31.8239C573.831 31.5567 573.665 31.3362 573.481 31.0861C572.443 29.9037 571.083 29.4616 569.521 29.9676ZM577.276 45.9975C577.864 47.0835 577.648 47.8022 576.582 48.4173C574.807 49.4423 573.031 50.4674 571.256 51.4925C569.48 52.5176 567.705 53.5427 565.959 54.5506C564.894 55.1657 564.146 54.964 563.516 53.9418C563.465 53.8527 558.905 45.9546 558.099 44.5591C557.705 43.8761 557.379 43.312 557.328 43.2229C556.74 42.1369 556.956 41.4182 558.022 40.8031C559.117 40.171 560.182 39.5559 561.277 38.9238L559.34 35.5686C559.044 35.7394 556.233 37.3625 555.108 38.0117C554.516 38.3534 553.976 38.7841 553.482 39.2275C552.263 40.3274 551.966 41.7262 552.518 43.2288C552.642 43.5131 552.75 43.7677 552.904 44.0349L554.327 46.4994L554.481 46.7666L560.601 57.3668C560.756 57.634 560.922 57.8545 561.106 58.1046C562.161 59.3167 563.491 59.7759 565.054 59.2698C565.684 59.064 566.328 58.8114 566.92 58.4697C568.014 57.8375 569.139 57.1883 570.263 56.5391C571.24 55.9753 572.216 55.4115 573.193 54.8477C574.169 54.2839 575.146 53.7201 576.122 53.1563C577.247 52.5071 578.342 51.875 579.466 51.2258C580.058 50.8841 580.599 50.4533 581.092 50.0099C582.312 48.91 582.609 47.5112 582.057 46.0087C581.962 45.7073 581.825 45.4698 581.67 45.2025L580.076 42.4411L576.407 44.5596C576.899 45.3442 577.242 45.9381 577.276 45.9975ZM597.765 24.6272L587.881 30.3335L589.767 33.5996L599.651 27.8934L597.765 24.6272ZM538.009 75.1614L541.619 73.077L529.825 52.6487L526.214 54.7331L538.009 75.1614ZM559.883 62.1364C555.812 60.211 551.771 58.2685 547.717 56.3727C547.432 56.2206 547.317 56.0892 547.328 55.7663C547.594 51.3762 547.844 46.9564 548.064 42.5537C548.072 42.4305 548.062 42.2775 548.082 42.1075C546.662 42.9276 545.301 43.7135 543.969 44.4823C543.881 44.5335 543.843 44.6739 543.818 44.7674C543.783 45.1839 543.764 45.6301 543.728 46.0467C543.55 48.8813 543.389 51.7457 543.21 54.5803C543.153 55.6428 542.666 56.4388 541.702 56.9558C541.672 56.9729 537.944 59.1256 537.944 59.1256L539.864 62.4511C540.159 62.2803 540.899 61.8531 541.313 61.614C541.905 61.2723 543.03 60.623 543.622 60.2814C544.421 59.8201 545.243 59.7411 546.123 60.1039C546.374 60.1967 546.595 60.3065 546.863 60.4289C549.845 61.8349 552.78 63.2284 555.715 64.6218C555.873 64.6893 556.089 64.7226 556.237 64.6372C557.586 63.8981 558.9 63.0996 560.291 62.2966C560.104 62.2462 559.994 62.1913 559.883 62.1364ZM581.34 27.3404L597.674 17.9097L595.771 14.6139L575.768 26.1631L587.545 46.5617L607.549 35.0125L605.629 31.6869L589.294 41.1176L581.34 27.3404ZM621.85 3.19947C620.795 1.98738 619.465 1.5282 617.903 2.03426C617.272 2.2401 616.629 2.49272 616.037 2.83441C610.622 5.9609 605.177 9.10447 599.762 12.231L599.436 12.4189L611.23 32.8472L614.87 30.7458L605.013 13.6727C605.102 13.6215 605.173 13.5405 605.233 13.5063C609.168 11.2341 613.074 8.97891 617.01 6.70665C618.075 6.09161 618.823 6.29333 619.453 7.31548C619.59 7.55301 622.277 12.1382 622.397 12.3461C622.534 12.5836 622.671 12.8212 622.778 13.0758C623.366 14.1618 623.15 14.8805 622.084 15.4956C619.303 17.1015 616.521 18.7075 613.74 20.3134L615.677 23.6687C618.784 21.8748 621.891 20.0809 624.998 18.287C625.59 17.9453 626.147 17.5442 626.641 17.1009C627.86 16.001 628.158 14.6021 627.606 13.0996C627.481 12.8153 627.373 12.5607 627.219 12.2934L625.608 9.50237L623.739 6.2659L622.368 3.89052C622.201 3.67007 622.034 3.44961 621.85 3.19947Z" fill="#1A1919"/>
</g>
<g opacity="0.16" clip-path="url(#clip6)">
<path d="M166.521 116.968C165.89 117.173 165.247 117.426 164.655 117.768C163.53 118.417 160.542 120.143 160.187 120.348L162.124 123.703C163.307 123.019 164.461 122.353 165.645 121.67C166.71 121.055 167.458 121.256 168.088 122.279C168.139 122.368 168.482 122.961 168.911 123.704L172.58 121.585L170.986 118.824C170.831 118.557 170.665 118.336 170.481 118.086C169.443 116.904 168.083 116.462 166.521 116.968ZM174.276 132.997C174.864 134.083 174.648 134.802 173.582 135.417C171.807 136.442 170.031 137.467 168.256 138.492C166.48 139.518 164.705 140.543 162.959 141.551C161.894 142.166 161.146 141.964 160.516 140.942C160.465 140.853 155.905 132.955 155.099 131.559C154.705 130.876 154.379 130.312 154.328 130.223C153.74 129.137 153.956 128.418 155.022 127.803C156.117 127.171 157.182 126.556 158.277 125.924L156.34 122.569C156.044 122.739 153.233 124.362 152.108 125.012C151.516 125.353 150.976 125.784 150.482 126.228C149.263 127.327 148.966 128.726 149.518 130.229C149.642 130.513 149.75 130.768 149.904 131.035L151.327 133.499L151.481 133.767L157.601 144.367C157.756 144.634 157.922 144.854 158.106 145.105C159.161 146.317 160.491 146.776 162.054 146.27C162.684 146.064 163.328 145.811 163.92 145.47C165.014 144.838 166.139 144.188 167.263 143.539C168.24 142.975 169.216 142.412 170.193 141.848C171.169 141.284 172.146 140.72 173.122 140.156C174.247 139.507 175.342 138.875 176.466 138.226C177.058 137.884 177.599 137.453 178.092 137.01C179.312 135.91 179.609 134.511 179.057 133.009C178.962 132.707 178.825 132.47 178.67 132.203L177.076 129.441L173.407 131.56C173.899 132.344 174.242 132.938 174.276 132.997ZM194.765 111.627L184.881 117.333L186.767 120.6L196.651 114.893L194.765 111.627ZM135.009 162.161L138.619 160.077L126.825 139.649L123.214 141.733L135.009 162.161ZM156.883 149.136C152.812 147.211 148.771 145.268 144.717 143.373C144.432 143.221 144.317 143.089 144.328 142.766C144.594 138.376 144.844 133.956 145.064 129.554C145.072 129.43 145.062 129.278 145.082 129.108C143.662 129.928 142.301 130.713 140.969 131.482C140.881 131.534 140.843 131.674 140.818 131.767C140.783 132.184 140.764 132.63 140.728 133.047C140.55 135.881 140.389 138.746 140.21 141.58C140.153 142.643 139.666 143.439 138.702 143.956C138.672 143.973 134.944 146.126 134.944 146.126L136.864 149.451C137.159 149.28 137.899 148.853 138.313 148.614C138.905 148.272 140.03 147.623 140.622 147.281C141.421 146.82 142.243 146.741 143.123 147.104C143.374 147.197 143.595 147.306 143.863 147.429C146.845 148.835 149.78 150.228 152.715 151.622C152.873 151.689 153.089 151.723 153.237 151.637C154.586 150.898 155.9 150.1 157.291 149.297C157.104 149.246 156.994 149.191 156.883 149.136ZM178.34 114.34L194.674 104.91L192.771 101.614L172.768 113.163L184.545 133.562L204.549 122.012L202.629 118.687L186.294 128.118L178.34 114.34ZM218.85 90.1995C217.795 88.9874 216.465 88.5282 214.903 89.0343C214.272 89.2401 213.629 89.4927 213.037 89.8344C207.622 92.9609 202.177 96.1045 196.762 99.231L196.436 99.4189L208.23 119.847L211.87 117.746L202.013 100.673C202.102 100.621 202.173 100.541 202.233 100.506C206.168 98.2341 210.074 95.9789 214.01 93.7067C215.075 93.0916 215.823 93.2933 216.453 94.3155C216.59 94.553 219.277 99.1382 219.397 99.3461C219.534 99.5836 219.671 99.8212 219.778 100.076C220.366 101.162 220.15 101.881 219.084 102.496C216.303 104.102 213.521 105.707 210.74 107.313L212.677 110.669C215.784 108.875 218.891 107.081 221.998 105.287C222.59 104.945 223.147 104.544 223.641 104.101C224.86 103.001 225.158 101.602 224.606 100.1C224.481 99.8153 224.373 99.5607 224.219 99.2934L222.608 96.5024L220.739 93.2659L219.368 90.8905C219.201 90.6701 219.034 90.4496 218.85 90.1995Z" fill="#1A1919"/>
</g>
<g opacity="0.16" clip-path="url(#clip7)">
<path d="M47.5208 682.968C46.89 683.173 46.2467 683.426 45.6549 683.768C44.5304 684.417 41.5417 686.143 41.1866 686.348L43.1237 689.703C44.3074 689.019 45.4615 688.353 46.6451 687.67C47.7104 687.055 48.4582 687.256 49.0878 688.279C49.1392 688.368 49.482 688.961 49.9106 689.704L53.58 687.585L51.9857 684.824C51.8314 684.557 51.6646 684.336 51.4808 684.086C50.443 682.904 49.083 682.462 47.5208 682.968ZM55.2763 698.997C55.8639 700.083 55.6476 700.802 54.5823 701.417C52.8068 702.442 51.0313 703.467 49.2558 704.492C47.4803 705.518 45.7048 706.543 43.9589 707.551C42.8936 708.166 42.1459 707.964 41.5163 706.942C41.4649 706.853 36.9049 698.955 36.0992 697.559C35.7049 696.876 35.3792 696.312 35.3277 696.223C34.7402 695.137 34.9565 694.418 36.0218 693.803C37.1167 693.171 38.182 692.556 39.2768 691.924L37.3397 688.569C37.0438 688.739 34.2326 690.362 33.1081 691.012C32.5163 691.353 31.9759 691.784 31.4822 692.228C30.2629 693.327 29.9657 694.726 30.5176 696.229C30.6423 696.513 30.7498 696.768 30.9041 697.035L32.327 699.499L32.4812 699.767L38.6012 710.367C38.7555 710.634 38.9223 710.854 39.1061 711.105C40.161 712.317 41.4914 712.776 43.0537 712.27C43.6845 712.064 44.3277 711.811 44.9196 711.47C46.0144 710.838 47.1389 710.188 48.2634 709.539C49.2399 708.975 50.2164 708.412 51.1929 707.848C52.1695 707.284 53.146 706.72 54.1225 706.156C55.247 705.507 56.3419 704.875 57.4663 704.226C58.0582 703.884 58.5986 703.453 59.0922 703.01C60.3116 701.91 60.6087 700.511 60.0569 699.009C59.9618 698.707 59.8246 698.47 59.6704 698.203L58.0761 695.441L54.4067 697.56C54.8992 698.344 55.242 698.938 55.2763 698.997ZM75.765 677.627L65.8814 683.333L67.7672 686.6L77.6507 680.893L75.765 677.627ZM16.0087 728.161L19.6189 726.077L7.82457 705.649L4.21441 707.733L16.0087 728.161ZM37.8829 715.136C33.8121 713.211 29.7709 711.268 25.7173 709.373C25.4322 709.221 25.3169 709.089 25.3277 708.766C25.5944 704.376 25.844 699.956 26.0639 695.554C26.0717 695.43 26.0623 695.278 26.0825 695.108C24.6621 695.928 23.3009 696.713 21.9693 697.482C21.8805 697.534 21.8432 697.674 21.8183 697.767C21.7826 698.184 21.764 698.63 21.7283 699.047C21.5499 701.881 21.3887 704.746 21.2104 707.58C21.153 708.643 20.6657 709.439 19.7016 709.956C19.672 709.973 15.9435 712.126 15.9435 712.126L17.8635 715.451C18.1594 715.28 18.8992 714.853 19.3135 714.614C19.9053 714.272 21.0298 713.623 21.6216 713.281C22.4206 712.82 23.243 712.741 24.1232 713.104C24.374 713.197 24.5953 713.306 24.8632 713.429C27.845 714.835 30.7801 716.228 33.7152 717.622C33.8725 717.689 34.0891 717.723 34.237 717.637C35.5858 716.898 36.9003 716.1 38.2911 715.297C38.1041 715.246 37.9935 715.191 37.8829 715.136ZM59.3399 680.34L75.6743 670.91L73.7715 667.614L53.7677 679.163L65.5448 699.562L85.5486 688.012L83.6286 684.687L67.2941 694.118L59.3399 680.34ZM99.8504 656.199C98.7955 654.987 97.4651 654.528 95.9028 655.034C95.272 655.24 94.6288 655.493 94.0369 655.834C88.6217 658.961 83.1769 662.104 77.7616 665.231L77.4361 665.419L89.2304 685.847L92.8702 683.746L83.013 666.673C83.1018 666.621 83.1734 666.541 83.2326 666.506C87.1683 664.234 91.0744 661.979 95.01 659.707C96.0753 659.092 96.8231 659.293 97.4526 660.315C97.5898 660.553 100.277 665.138 100.397 665.346C100.534 665.584 100.671 665.821 100.778 666.076C101.366 667.162 101.15 667.881 100.084 668.496C97.3027 670.102 94.5211 671.707 91.7395 673.313L93.6766 676.669C96.7838 674.875 99.8909 673.081 102.998 671.287C103.59 670.945 104.147 670.544 104.641 670.101C105.86 669.001 106.158 667.602 105.606 666.1C105.481 665.815 105.373 665.561 105.219 665.293L103.608 662.502L101.739 659.266L100.368 656.891C100.201 656.67 100.034 656.45 99.8504 656.199Z" fill="#1A1919"/>
</g>
<g opacity="0.16" clip-path="url(#clip8)">
<path d="M265.521 552.968C264.89 553.173 264.247 553.426 263.655 553.768C262.53 554.417 259.542 556.143 259.187 556.348L261.124 559.703C262.307 559.019 263.461 558.353 264.645 557.67C265.71 557.055 266.458 557.256 267.088 558.279C267.139 558.368 267.482 558.961 267.911 559.704L271.58 557.585L269.986 554.824C269.831 554.557 269.665 554.336 269.481 554.086C268.443 552.904 267.083 552.462 265.521 552.968ZM273.276 568.997C273.864 570.083 273.648 570.802 272.582 571.417C270.807 572.442 269.031 573.467 267.256 574.492C265.48 575.518 263.705 576.543 261.959 577.551C260.894 578.166 260.146 577.964 259.516 576.942C259.465 576.853 254.905 568.955 254.099 567.559C253.705 566.876 253.379 566.312 253.328 566.223C252.74 565.137 252.956 564.418 254.022 563.803C255.117 563.171 256.182 562.556 257.277 561.924L255.34 558.569C255.044 558.739 252.233 560.362 251.108 561.012C250.516 561.353 249.976 561.784 249.482 562.228C248.263 563.327 247.966 564.726 248.518 566.229C248.642 566.513 248.75 566.768 248.904 567.035L250.327 569.499L250.481 569.767L256.601 580.367C256.756 580.634 256.922 580.854 257.106 581.105C258.161 582.317 259.491 582.776 261.054 582.27C261.684 582.064 262.328 581.811 262.92 581.47C264.014 580.838 265.139 580.188 266.263 579.539C267.24 578.975 268.216 578.412 269.193 577.848C270.169 577.284 271.146 576.72 272.122 576.156C273.247 575.507 274.342 574.875 275.466 574.226C276.058 573.884 276.599 573.453 277.092 573.01C278.312 571.91 278.609 570.511 278.057 569.009C277.962 568.707 277.825 568.47 277.67 568.203L276.076 565.441L272.407 567.56C272.899 568.344 273.242 568.938 273.276 568.997ZM293.765 547.627L283.881 553.333L285.767 556.6L295.651 550.893L293.765 547.627ZM234.009 598.161L237.619 596.077L225.825 575.649L222.214 577.733L234.009 598.161ZM255.883 585.136C251.812 583.211 247.771 581.268 243.717 579.373C243.432 579.221 243.317 579.089 243.328 578.766C243.594 574.376 243.844 569.956 244.064 565.554C244.072 565.43 244.062 565.278 244.082 565.108C242.662 565.928 241.301 566.713 239.969 567.482C239.881 567.534 239.843 567.674 239.818 567.767C239.783 568.184 239.764 568.63 239.728 569.047C239.55 571.881 239.389 574.746 239.21 577.58C239.153 578.643 238.666 579.439 237.702 579.956C237.672 579.973 233.944 582.126 233.944 582.126L235.864 585.451C236.159 585.28 236.899 584.853 237.313 584.614C237.905 584.272 239.03 583.623 239.622 583.281C240.421 582.82 241.243 582.741 242.123 583.104C242.374 583.197 242.595 583.306 242.863 583.429C245.845 584.835 248.78 586.228 251.715 587.622C251.873 587.689 252.089 587.723 252.237 587.637C253.586 586.898 254.9 586.1 256.291 585.297C256.104 585.246 255.994 585.191 255.883 585.136ZM277.34 550.34L293.674 540.91L291.771 537.614L271.768 549.163L283.545 569.562L303.549 558.012L301.629 554.687L285.294 564.118L277.34 550.34ZM317.85 526.199C316.795 524.987 315.465 524.528 313.903 525.034C313.272 525.24 312.629 525.493 312.037 525.834C306.622 528.961 301.177 532.104 295.762 535.231L295.436 535.419L307.23 555.847L310.87 553.746L301.013 536.673C301.102 536.621 301.173 536.541 301.233 536.506C305.168 534.234 309.074 531.979 313.01 529.707C314.075 529.092 314.823 529.293 315.453 530.315C315.59 530.553 318.277 535.138 318.397 535.346C318.534 535.584 318.671 535.821 318.778 536.076C319.366 537.162 319.15 537.881 318.084 538.496C315.303 540.102 312.521 541.707 309.74 543.313L311.677 546.669C314.784 544.875 317.891 543.081 320.998 541.287C321.59 540.945 322.147 540.544 322.641 540.101C323.86 539.001 324.158 537.602 323.606 536.1C323.481 535.815 323.373 535.561 323.219 535.293L321.608 532.502L319.739 529.266L318.368 526.891C318.201 526.67 318.034 526.45 317.85 526.199Z" fill="#1A1919"/>
</g>
<g opacity="0.16" clip-path="url(#clip9)">
<path d="M483.521 422.968C482.89 423.173 482.247 423.426 481.655 423.768C480.53 424.417 477.542 426.143 477.187 426.348L479.124 429.703C480.307 429.019 481.461 428.353 482.645 427.67C483.71 427.055 484.458 427.256 485.088 428.279C485.139 428.368 485.482 428.961 485.911 429.704L489.58 427.585L487.986 424.824C487.831 424.557 487.665 424.336 487.481 424.086C486.443 422.904 485.083 422.462 483.521 422.968ZM491.276 438.997C491.864 440.083 491.648 440.802 490.582 441.417C488.807 442.442 487.031 443.467 485.256 444.492C483.48 445.518 481.705 446.543 479.959 447.551C478.894 448.166 478.146 447.964 477.516 446.942C477.465 446.853 472.905 438.955 472.099 437.559C471.705 436.876 471.379 436.312 471.328 436.223C470.74 435.137 470.956 434.418 472.022 433.803C473.117 433.171 474.182 432.556 475.277 431.924L473.34 428.569C473.044 428.739 470.233 430.362 469.108 431.012C468.516 431.353 467.976 431.784 467.482 432.228C466.263 433.327 465.966 434.726 466.518 436.229C466.642 436.513 466.75 436.768 466.904 437.035L468.327 439.499L468.481 439.767L474.601 450.367C474.756 450.634 474.922 450.854 475.106 451.105C476.161 452.317 477.491 452.776 479.054 452.27C479.684 452.064 480.328 451.811 480.92 451.47C482.014 450.838 483.139 450.188 484.263 449.539C485.24 448.975 486.216 448.412 487.193 447.848C488.169 447.284 489.146 446.72 490.122 446.156C491.247 445.507 492.342 444.875 493.466 444.226C494.058 443.884 494.599 443.453 495.092 443.01C496.312 441.91 496.609 440.511 496.057 439.009C495.962 438.707 495.825 438.47 495.67 438.203L494.076 435.441L490.407 437.56C490.899 438.344 491.242 438.938 491.276 438.997ZM511.765 417.627L501.881 423.333L503.767 426.6L513.651 420.893L511.765 417.627ZM452.009 468.161L455.619 466.077L443.825 445.649L440.214 447.733L452.009 468.161ZM473.883 455.136C469.812 453.211 465.771 451.268 461.717 449.373C461.432 449.221 461.317 449.089 461.328 448.766C461.594 444.376 461.844 439.956 462.064 435.554C462.072 435.43 462.062 435.278 462.082 435.108C460.662 435.928 459.301 436.713 457.969 437.482C457.881 437.534 457.843 437.674 457.818 437.767C457.783 438.184 457.764 438.63 457.728 439.047C457.55 441.881 457.389 444.746 457.21 447.58C457.153 448.643 456.666 449.439 455.702 449.956C455.672 449.973 451.944 452.126 451.944 452.126L453.864 455.451C454.159 455.28 454.899 454.853 455.313 454.614C455.905 454.272 457.03 453.623 457.622 453.281C458.421 452.82 459.243 452.741 460.123 453.104C460.374 453.197 460.595 453.306 460.863 453.429C463.845 454.835 466.78 456.228 469.715 457.622C469.873 457.689 470.089 457.723 470.237 457.637C471.586 456.898 472.9 456.1 474.291 455.297C474.104 455.246 473.994 455.191 473.883 455.136ZM495.34 420.34L511.674 410.91L509.771 407.614L489.768 419.163L501.545 439.562L521.549 428.012L519.629 424.687L503.294 434.118L495.34 420.34ZM535.85 396.199C534.795 394.987 533.465 394.528 531.903 395.034C531.272 395.24 530.629 395.493 530.037 395.834C524.622 398.961 519.177 402.104 513.762 405.231L513.436 405.419L525.23 425.847L528.87 423.746L519.013 406.673C519.102 406.621 519.173 406.541 519.233 406.506C523.168 404.234 527.074 401.979 531.01 399.707C532.075 399.092 532.823 399.293 533.453 400.315C533.59 400.553 536.277 405.138 536.397 405.346C536.534 405.584 536.671 405.821 536.778 406.076C537.366 407.162 537.15 407.881 536.084 408.496C533.303 410.102 530.521 411.707 527.74 413.313L529.677 416.669C532.784 414.875 535.891 413.081 538.998 411.287C539.59 410.945 540.147 410.544 540.641 410.101C541.86 409.001 542.158 407.602 541.606 406.1C541.481 405.815 541.373 405.561 541.219 405.293L539.608 402.502L537.739 399.266L536.368 396.891C536.201 396.67 536.034 396.45 535.85 396.199Z" fill="#1A1919"/>
</g>
<g opacity="0.16" clip-path="url(#clip10)">
<path d="M197.521 962.968C196.89 963.173 196.247 963.426 195.655 963.768C194.53 964.417 191.542 966.143 191.187 966.348L193.124 969.703C194.307 969.019 195.461 968.353 196.645 967.67C197.71 967.055 198.458 967.256 199.088 968.279C199.139 968.368 199.482 968.961 199.911 969.704L203.58 967.585L201.986 964.824C201.831 964.557 201.665 964.336 201.481 964.086C200.443 962.904 199.083 962.462 197.521 962.968ZM205.276 978.997C205.864 980.083 205.648 980.802 204.582 981.417C202.807 982.442 201.031 983.467 199.256 984.492C197.48 985.518 195.705 986.543 193.959 987.551C192.894 988.166 192.146 987.964 191.516 986.942C191.465 986.853 186.905 978.955 186.099 977.559C185.705 976.876 185.379 976.312 185.328 976.223C184.74 975.137 184.956 974.418 186.022 973.803C187.117 973.171 188.182 972.556 189.277 971.924L187.34 968.569C187.044 968.739 184.233 970.362 183.108 971.012C182.516 971.353 181.976 971.784 181.482 972.228C180.263 973.327 179.966 974.726 180.518 976.229C180.642 976.513 180.75 976.768 180.904 977.035L182.327 979.499L182.481 979.767L188.601 990.367C188.756 990.634 188.922 990.854 189.106 991.105C190.161 992.317 191.491 992.776 193.054 992.27C193.684 992.064 194.328 991.811 194.92 991.47C196.014 990.838 197.139 990.188 198.263 989.539C199.24 988.975 200.216 988.412 201.193 987.848C202.169 987.284 203.146 986.72 204.122 986.156C205.247 985.507 206.342 984.875 207.466 984.226C208.058 983.884 208.599 983.453 209.092 983.01C210.312 981.91 210.609 980.511 210.057 979.009C209.962 978.707 209.825 978.47 209.67 978.203L208.076 975.441L204.407 977.56C204.899 978.344 205.242 978.938 205.276 978.997ZM225.765 957.627L215.881 963.333L217.767 966.6L227.651 960.893L225.765 957.627ZM166.009 1008.16L169.619 1006.08L157.825 985.649L154.214 987.733L166.009 1008.16ZM187.883 995.136C183.812 993.211 179.771 991.268 175.717 989.373C175.432 989.221 175.317 989.089 175.328 988.766C175.594 984.376 175.844 979.956 176.064 975.554C176.072 975.43 176.062 975.278 176.082 975.108C174.662 975.928 173.301 976.713 171.969 977.482C171.881 977.534 171.843 977.674 171.818 977.767C171.783 978.184 171.764 978.63 171.728 979.047C171.55 981.881 171.389 984.746 171.21 987.58C171.153 988.643 170.666 989.439 169.702 989.956C169.672 989.973 165.944 992.126 165.944 992.126L167.864 995.451C168.159 995.28 168.899 994.853 169.313 994.614C169.905 994.272 171.03 993.623 171.622 993.281C172.421 992.82 173.243 992.741 174.123 993.104C174.374 993.197 174.595 993.306 174.863 993.429C177.845 994.835 180.78 996.228 183.715 997.622C183.873 997.689 184.089 997.723 184.237 997.637C185.586 996.898 186.9 996.1 188.291 995.297C188.104 995.246 187.994 995.191 187.883 995.136ZM209.34 960.34L225.674 950.91L223.771 947.614L203.768 959.163L215.545 979.562L235.549 968.012L233.629 964.687L217.294 974.118L209.34 960.34ZM249.85 936.199C248.795 934.987 247.465 934.528 245.903 935.034C245.272 935.24 244.629 935.493 244.037 935.834C238.622 938.961 233.177 942.104 227.762 945.231L227.436 945.419L239.23 965.847L242.87 963.746L233.013 946.673C233.102 946.621 233.173 946.541 233.233 946.506C237.168 944.234 241.074 941.979 245.01 939.707C246.075 939.092 246.823 939.293 247.453 940.315C247.59 940.553 250.277 945.138 250.397 945.346C250.534 945.584 250.671 945.821 250.778 946.076C251.366 947.162 251.15 947.881 250.084 948.496C247.303 950.102 244.521 951.707 241.74 953.313L243.677 956.669C246.784 954.875 249.891 953.081 252.998 951.287C253.59 950.945 254.147 950.544 254.641 950.101C255.86 949.001 256.158 947.602 255.606 946.1C255.481 945.815 255.373 945.561 255.219 945.293L253.608 942.502L251.739 939.266L250.368 936.891C250.201 936.67 250.034 936.45 249.85 936.199Z" fill="#1A1919"/>
</g>
<g opacity="0.16" clip-path="url(#clip11)">
<path d="M415.521 832.968C414.89 833.173 414.247 833.426 413.655 833.768C412.53 834.417 409.542 836.143 409.187 836.348L411.124 839.703C412.307 839.019 413.461 838.353 414.645 837.67C415.71 837.055 416.458 837.256 417.088 838.279C417.139 838.368 417.482 838.961 417.911 839.704L421.58 837.585L419.986 834.824C419.831 834.557 419.665 834.336 419.481 834.086C418.443 832.904 417.083 832.462 415.521 832.968ZM423.276 848.997C423.864 850.083 423.648 850.802 422.582 851.417C420.807 852.442 419.031 853.467 417.256 854.492C415.48 855.518 413.705 856.543 411.959 857.551C410.894 858.166 410.146 857.964 409.516 856.942C409.465 856.853 404.905 848.955 404.099 847.559C403.705 846.876 403.379 846.312 403.328 846.223C402.74 845.137 402.956 844.418 404.022 843.803C405.117 843.171 406.182 842.556 407.277 841.924L405.34 838.569C405.044 838.739 402.233 840.362 401.108 841.012C400.516 841.353 399.976 841.784 399.482 842.228C398.263 843.327 397.966 844.726 398.518 846.229C398.642 846.513 398.75 846.768 398.904 847.035L400.327 849.499L400.481 849.767L406.601 860.367C406.756 860.634 406.922 860.854 407.106 861.105C408.161 862.317 409.491 862.776 411.054 862.27C411.684 862.064 412.328 861.811 412.92 861.47C414.014 860.838 415.139 860.188 416.263 859.539C417.24 858.975 418.216 858.412 419.193 857.848C420.169 857.284 421.146 856.72 422.122 856.156C423.247 855.507 424.342 854.875 425.466 854.226C426.058 853.884 426.599 853.453 427.092 853.01C428.312 851.91 428.609 850.511 428.057 849.009C427.962 848.707 427.825 848.47 427.67 848.203L426.076 845.441L422.407 847.56C422.899 848.344 423.242 848.938 423.276 848.997ZM443.765 827.627L433.881 833.333L435.767 836.6L445.651 830.893L443.765 827.627ZM384.009 878.161L387.619 876.077L375.825 855.649L372.214 857.733L384.009 878.161ZM405.883 865.136C401.812 863.211 397.771 861.268 393.717 859.373C393.432 859.221 393.317 859.089 393.328 858.766C393.594 854.376 393.844 849.956 394.064 845.554C394.072 845.43 394.062 845.278 394.082 845.108C392.662 845.928 391.301 846.713 389.969 847.482C389.881 847.534 389.843 847.674 389.818 847.767C389.783 848.184 389.764 848.63 389.728 849.047C389.55 851.881 389.389 854.746 389.21 857.58C389.153 858.643 388.666 859.439 387.702 859.956C387.672 859.973 383.944 862.126 383.944 862.126L385.864 865.451C386.159 865.28 386.899 864.853 387.313 864.614C387.905 864.272 389.03 863.623 389.622 863.281C390.421 862.82 391.243 862.741 392.123 863.104C392.374 863.197 392.595 863.306 392.863 863.429C395.845 864.835 398.78 866.228 401.715 867.622C401.873 867.689 402.089 867.723 402.237 867.637C403.586 866.898 404.9 866.1 406.291 865.297C406.104 865.246 405.994 865.191 405.883 865.136ZM427.34 830.34L443.674 820.91L441.771 817.614L421.768 829.163L433.545 849.562L453.549 838.012L451.629 834.687L435.294 844.118L427.34 830.34ZM467.85 806.199C466.795 804.987 465.465 804.528 463.903 805.034C463.272 805.24 462.629 805.493 462.037 805.834C456.622 808.961 451.177 812.104 445.762 815.231L445.436 815.419L457.23 835.847L460.87 833.746L451.013 816.673C451.102 816.621 451.173 816.541 451.233 816.506C455.168 814.234 459.074 811.979 463.01 809.707C464.075 809.092 464.823 809.293 465.453 810.315C465.59 810.553 468.277 815.138 468.397 815.346C468.534 815.584 468.671 815.821 468.778 816.076C469.366 817.162 469.15 817.881 468.084 818.496C465.303 820.102 462.521 821.707 459.74 823.313L461.677 826.669C464.784 824.875 467.891 823.081 470.998 821.287C471.59 820.945 472.147 820.544 472.641 820.101C473.86 819.001 474.158 817.602 473.606 816.1C473.481 815.815 473.373 815.561 473.219 815.293L471.608 812.502L469.739 809.266L468.368 806.891C468.201 806.67 468.034 806.45 467.85 806.199Z" fill="#1A1919"/>
</g>
<g opacity="0.16" clip-path="url(#clip12)">
<path d="M231.521 757.968C230.89 758.173 230.247 758.426 229.655 758.768C228.53 759.417 225.542 761.143 225.187 761.348L227.124 764.703C228.307 764.019 229.461 763.353 230.645 762.67C231.71 762.055 232.458 762.256 233.088 763.279C233.139 763.368 233.482 763.961 233.911 764.704L237.58 762.585L235.986 759.824C235.831 759.557 235.665 759.336 235.481 759.086C234.443 757.904 233.083 757.462 231.521 757.968ZM239.276 773.997C239.864 775.083 239.648 775.802 238.582 776.417C236.807 777.442 235.031 778.467 233.256 779.492C231.48 780.518 229.705 781.543 227.959 782.551C226.894 783.166 226.146 782.964 225.516 781.942C225.465 781.853 220.905 773.955 220.099 772.559C219.705 771.876 219.379 771.312 219.328 771.223C218.74 770.137 218.956 769.418 220.022 768.803C221.117 768.171 222.182 767.556 223.277 766.924L221.34 763.569C221.044 763.739 218.233 765.362 217.108 766.012C216.516 766.353 215.976 766.784 215.482 767.228C214.263 768.327 213.966 769.726 214.518 771.229C214.642 771.513 214.75 771.768 214.904 772.035L216.327 774.499L216.481 774.767L222.601 785.367C222.756 785.634 222.922 785.854 223.106 786.105C224.161 787.317 225.491 787.776 227.054 787.27C227.684 787.064 228.328 786.811 228.92 786.47C230.014 785.838 231.139 785.188 232.263 784.539C233.24 783.975 234.216 783.412 235.193 782.848C236.169 782.284 237.146 781.72 238.122 781.156C239.247 780.507 240.342 779.875 241.466 779.226C242.058 778.884 242.599 778.453 243.092 778.01C244.312 776.91 244.609 775.511 244.057 774.009C243.962 773.707 243.825 773.47 243.67 773.203L242.076 770.441L238.407 772.56C238.899 773.344 239.242 773.938 239.276 773.997ZM259.765 752.627L249.881 758.333L251.767 761.6L261.651 755.893L259.765 752.627ZM200.009 803.161L203.619 801.077L191.825 780.649L188.214 782.733L200.009 803.161ZM221.883 790.136C217.812 788.211 213.771 786.268 209.717 784.373C209.432 784.221 209.317 784.089 209.328 783.766C209.594 779.376 209.844 774.956 210.064 770.554C210.072 770.43 210.062 770.278 210.082 770.108C208.662 770.928 207.301 771.713 205.969 772.482C205.881 772.534 205.843 772.674 205.818 772.767C205.783 773.184 205.764 773.63 205.728 774.047C205.55 776.881 205.389 779.746 205.21 782.58C205.153 783.643 204.666 784.439 203.702 784.956C203.672 784.973 199.944 787.126 199.944 787.126L201.864 790.451C202.159 790.28 202.899 789.853 203.313 789.614C203.905 789.272 205.03 788.623 205.622 788.281C206.421 787.82 207.243 787.741 208.123 788.104C208.374 788.197 208.595 788.306 208.863 788.429C211.845 789.835 214.78 791.228 217.715 792.622C217.873 792.689 218.089 792.723 218.237 792.637C219.586 791.898 220.9 791.1 222.291 790.297C222.104 790.246 221.994 790.191 221.883 790.136ZM243.34 755.34L259.674 745.91L257.771 742.614L237.768 754.163L249.545 774.562L269.549 763.012L267.629 759.687L251.294 769.118L243.34 755.34ZM283.85 731.199C282.795 729.987 281.465 729.528 279.903 730.034C279.272 730.24 278.629 730.493 278.037 730.834C272.622 733.961 267.177 737.104 261.762 740.231L261.436 740.419L273.23 760.847L276.87 758.746L267.013 741.673C267.102 741.621 267.173 741.541 267.233 741.506C271.168 739.234 275.074 736.979 279.01 734.707C280.075 734.092 280.823 734.293 281.453 735.315C281.59 735.553 284.277 740.138 284.397 740.346C284.534 740.584 284.671 740.821 284.778 741.076C285.366 742.162 285.15 742.881 284.084 743.496C281.303 745.102 278.521 746.707 275.74 748.313L277.677 751.669C280.784 749.875 283.891 748.081 286.998 746.287C287.59 745.945 288.147 745.544 288.641 745.101C289.86 744.001 290.158 742.602 289.606 741.1C289.481 740.815 289.373 740.561 289.219 740.293L287.608 737.502L285.739 734.266L284.368 731.891C284.201 731.67 284.034 731.45 283.85 731.199Z" fill="#1A1919"/>
</g>
<g opacity="0.16" clip-path="url(#clip13)">
<path d="M449.521 627.968C448.89 628.173 448.247 628.426 447.655 628.768C446.53 629.417 443.542 631.143 443.187 631.348L445.124 634.703C446.307 634.019 447.461 633.353 448.645 632.67C449.71 632.055 450.458 632.256 451.088 633.279C451.139 633.368 451.482 633.961 451.911 634.704L455.58 632.585L453.986 629.824C453.831 629.557 453.665 629.336 453.481 629.086C452.443 627.904 451.083 627.462 449.521 627.968ZM457.276 643.997C457.864 645.083 457.648 645.802 456.582 646.417C454.807 647.442 453.031 648.467 451.256 649.492C449.48 650.518 447.705 651.543 445.959 652.551C444.894 653.166 444.146 652.964 443.516 651.942C443.465 651.853 438.905 643.955 438.099 642.559C437.705 641.876 437.379 641.312 437.328 641.223C436.74 640.137 436.956 639.418 438.022 638.803C439.117 638.171 440.182 637.556 441.277 636.924L439.34 633.569C439.044 633.739 436.233 635.362 435.108 636.012C434.516 636.353 433.976 636.784 433.482 637.228C432.263 638.327 431.966 639.726 432.518 641.229C432.642 641.513 432.75 641.768 432.904 642.035L434.327 644.499L434.481 644.767L440.601 655.367C440.756 655.634 440.922 655.854 441.106 656.105C442.161 657.317 443.491 657.776 445.054 657.27C445.684 657.064 446.328 656.811 446.92 656.47C448.014 655.838 449.139 655.188 450.263 654.539C451.24 653.975 452.216 653.412 453.193 652.848C454.169 652.284 455.146 651.72 456.122 651.156C457.247 650.507 458.342 649.875 459.466 649.226C460.058 648.884 460.599 648.453 461.092 648.01C462.312 646.91 462.609 645.511 462.057 644.009C461.962 643.707 461.825 643.47 461.67 643.203L460.076 640.441L456.407 642.56C456.899 643.344 457.242 643.938 457.276 643.997ZM477.765 622.627L467.881 628.333L469.767 631.6L479.651 625.893L477.765 622.627ZM418.009 673.161L421.619 671.077L409.825 650.649L406.214 652.733L418.009 673.161ZM439.883 660.136C435.812 658.211 431.771 656.268 427.717 654.373C427.432 654.221 427.317 654.089 427.328 653.766C427.594 649.376 427.844 644.956 428.064 640.554C428.072 640.43 428.062 640.278 428.082 640.108C426.662 640.928 425.301 641.713 423.969 642.482C423.881 642.534 423.843 642.674 423.818 642.767C423.783 643.184 423.764 643.63 423.728 644.047C423.55 646.881 423.389 649.746 423.21 652.58C423.153 653.643 422.666 654.439 421.702 654.956C421.672 654.973 417.944 657.126 417.944 657.126L419.864 660.451C420.159 660.28 420.899 659.853 421.313 659.614C421.905 659.272 423.03 658.623 423.622 658.281C424.421 657.82 425.243 657.741 426.123 658.104C426.374 658.197 426.595 658.306 426.863 658.429C429.845 659.835 432.78 661.228 435.715 662.622C435.873 662.689 436.089 662.723 436.237 662.637C437.586 661.898 438.9 661.1 440.291 660.297C440.104 660.246 439.994 660.191 439.883 660.136ZM461.34 625.34L477.674 615.91L475.771 612.614L455.768 624.163L467.545 644.562L487.549 633.012L485.629 629.687L469.294 639.118L461.34 625.34ZM501.85 601.199C500.795 599.987 499.465 599.528 497.903 600.034C497.272 600.24 496.629 600.493 496.037 600.834C490.622 603.961 485.177 607.104 479.762 610.231L479.436 610.419L491.23 630.847L494.87 628.746L485.013 611.673C485.102 611.621 485.173 611.541 485.233 611.506C489.168 609.234 493.074 606.979 497.01 604.707C498.075 604.092 498.823 604.293 499.453 605.315C499.59 605.553 502.277 610.138 502.397 610.346C502.534 610.584 502.671 610.821 502.778 611.076C503.366 612.162 503.15 612.881 502.084 613.496C499.303 615.102 496.521 616.707 493.74 618.313L495.677 621.669C498.784 619.875 501.891 618.081 504.998 616.287C505.59 615.945 506.147 615.544 506.641 615.101C507.86 614.001 508.158 612.602 507.606 611.1C507.481 610.815 507.373 610.561 507.219 610.293L505.608 607.502L503.739 604.266L502.368 601.891C502.201 601.67 502.034 601.45 501.85 601.199Z" fill="#1A1919"/>
</g>
</g>
<defs>
<filter id="filter0_d" x="0" y="0" width="636.397" height="1016.28" filterUnits="userSpaceOnUse" color-interpolation-filters="sRGB">
<feFlood flood-opacity="0" result="BackgroundImageFix"/>
<feColorMatrix in="SourceAlpha" type="matrix" values="0 0 0 0 0 0 0 0 0 0 0 0 0 0 0 0 0 0 127 0"/>
<feOffset dy="4"/>
<feGaussianBlur stdDeviation="2"/>
<feColorMatrix type="matrix" values="0 0 0 0 0 0 0 0 0 0 0 0 0 0 0 0 0 0 0.25 0"/>
<feBlend mode="normal" in2="BackgroundImageFix" result="effect1_dropShadow"/>
<feBlend mode="normal" in="SourceGraphic" in2="effect1_dropShadow" result="shape"/>
</filter>
<clipPath id="clip0">
<rect width="109" height="24" fill="white" transform="translate(37 511.5) rotate(-30)"/>
</clipPath>
<clipPath id="clip1">
<rect width="109" height="24" fill="white" transform="translate(255 381.5) rotate(-30)"/>
</clipPath>
<clipPath id="clip2">
<rect width="109" height="24" fill="white" transform="translate(473 251.5) rotate(-30)"/>
</clipPath>
<clipPath id="clip3">
<rect width="109" height="24" fill="white" transform="translate(90 314.5) rotate(-30)"/>
</clipPath>
<clipPath id="clip4">
<rect width="109" height="24" fill="white" transform="translate(308 184.5) rotate(-30)"/>
</clipPath>
<clipPath id="clip5">
<rect width="109" height="24" fill="white" transform="translate(526 54.5) rotate(-30)"/>
</clipPath>
<clipPath id="clip6">
<rect width="109" height="24" fill="white" transform="translate(123 141.5) rotate(-30)"/>
</clipPath>
<clipPath id="clip7">
<rect width="109" height="24" fill="white" transform="translate(4 707.5) rotate(-30)"/>
</clipPath>
<clipPath id="clip8">
<rect width="109" height="24" fill="white" transform="translate(222 577.5) rotate(-30)"/>
</clipPath>
<clipPath id="clip9">
<rect width="109" height="24" fill="white" transform="translate(440 447.5) rotate(-30)"/>
</clipPath>
<clipPath id="clip10">
<rect width="109" height="24" fill="white" transform="translate(154 987.5) rotate(-30)"/>
</clipPath>
<clipPath id="clip11">
<rect width="109" height="24" fill="white" transform="translate(372 857.5) rotate(-30)"/>
</clipPath>
<clipPath id="clip12">
<rect width="109" height="24" fill="white" transform="translate(188 782.5) rotate(-30)"/>
</clipPath>
<clipPath id="clip13">
<rect width="109" height="24" fill="white" transform="translate(406 652.5) rotate(-30)"/>
</clipPath>
</defs>
</svg>
