<svg width="637" height="1017" fill="none" xmlns="http://www.w3.org/2000/svg"><g filter="url(#filter0_d)"><g opacity=".16" clip-path="url(#clip0)"><path d="M80.52 486.968c-.63.205-1.273.458-1.865.8l-4.468 2.58 1.937 3.355 3.521-2.033c1.065-.615 1.813-.414 2.443.609l.823 1.425 3.669-2.119-1.594-2.761c-.155-.267-.321-.488-.505-.738-1.038-1.182-2.398-1.624-3.96-1.118zm7.756 16.029c.588 1.086.372 1.805-.694 2.42l-5.326 3.075-5.297 3.059c-1.065.615-1.813.413-2.443-.609a164255.296 164255.296 0 01-6.188-10.719c-.588-1.086-.371-1.805.694-2.42l3.255-1.879-1.937-3.355-4.232 2.443c-.592.341-1.132.772-1.626 1.216-1.22 1.099-1.516 2.498-.964 4.001.124.284.232.539.386.806l1.423 2.464.154.268 6.12 10.6c.154.267.321.487.505.738 1.055 1.212 2.385 1.671 3.948 1.165.63-.206 1.274-.459 1.866-.8l3.343-1.931 2.93-1.691 2.93-1.692 3.343-1.93c.592-.342 1.133-.773 1.626-1.216 1.22-1.1 1.517-2.499.965-4.001-.095-.302-.232-.539-.387-.806l-1.594-2.762-3.67 2.119c.493.784.836 1.378.87 1.437zm20.489-21.37l-9.884 5.706 1.886 3.267 9.884-5.707-1.886-3.266zm-59.756 50.534l3.61-2.084-11.794-20.428-3.61 2.084 11.794 20.428zm21.874-13.025c-4.07-1.925-8.112-3.868-12.166-5.763-.285-.152-.4-.284-.39-.607.267-4.39.517-8.81.737-13.212.008-.124-.002-.276.019-.446l-4.114 2.374c-.089.052-.126.192-.15.285-.036.417-.055.863-.09 1.28-.18 2.834-.34 5.699-.519 8.533-.057 1.063-.544 1.859-1.508 2.376l-3.758 2.17 1.92 3.325 1.45-.837 2.308-1.333c.799-.461 1.621-.54 2.501-.177.251.093.472.202.74.325 2.982 1.406 5.917 2.799 8.852 4.193.157.067.374.101.522.015 1.349-.739 2.663-1.537 4.054-2.34a1.999 1.999 0 01-.408-.161zM92.34 484.34l16.334-9.43-1.903-3.296-20.003 11.549 11.777 20.399 20.004-11.55-1.92-3.325-16.335 9.431-7.954-13.778zm40.51-24.141c-1.055-1.212-2.385-1.671-3.947-1.165-.631.206-1.274.459-1.866.8l-16.275 9.397-.326.188 11.794 20.428 3.64-2.101-9.857-17.073c.089-.052.16-.132.22-.167l11.777-6.799c1.065-.615 1.813-.414 2.443.608.137.238 2.824 4.823 2.944 5.031.137.238.274.475.381.73.588 1.086.372 1.805-.694 2.42l-8.344 4.817 1.937 3.356 9.321-5.382a9.854 9.854 0 001.643-1.186c1.219-1.1 1.517-2.499.965-4.001-.125-.285-.233-.539-.387-.807l-1.611-2.791-1.869-3.236-1.371-2.375c-.167-.221-.334-.441-.518-.692z" fill="#1A1919"/></g><g opacity=".16" clip-path="url(#clip1)"><path d="M298.521 356.968c-.631.205-1.274.458-1.866.8l-4.468 2.58 1.937 3.355 3.521-2.033c1.065-.615 1.813-.414 2.443.609l.823 1.425 3.669-2.119-1.594-2.761c-.155-.267-.321-.488-.505-.738-1.038-1.182-2.398-1.624-3.96-1.118zm7.755 16.029c.588 1.086.372 1.805-.694 2.42l-5.326 3.075-5.297 3.059c-1.065.615-1.813.413-2.443-.609l-5.417-9.383-.771-1.336c-.588-1.086-.372-1.805.694-2.42l3.255-1.879-1.937-3.355-4.232 2.443c-.592.341-1.132.772-1.626 1.216-1.219 1.099-1.516 2.498-.964 4.001.124.284.232.539.386.806l1.423 2.464.154.268 6.12 10.6c.155.267.321.487.505.738 1.055 1.212 2.385 1.671 3.948 1.165.63-.206 1.274-.459 1.866-.8l3.343-1.931 2.93-1.691 2.929-1.692 3.344-1.93c.592-.342 1.133-.773 1.626-1.216 1.22-1.1 1.517-2.499.965-4.001-.095-.302-.232-.539-.387-.806l-1.594-2.762-3.669 2.119c.492.784.835 1.378.869 1.437zm20.489-21.37l-9.884 5.706 1.886 3.267 9.884-5.707-1.886-3.266zm-59.756 50.534l3.61-2.084-11.794-20.428-3.611 2.084 11.795 20.428zm21.874-13.025c-4.071-1.925-8.112-3.868-12.166-5.763-.285-.152-.4-.284-.389-.607.266-4.39.516-8.81.736-13.212.008-.124-.002-.276.018-.446l-4.113 2.374c-.088.052-.126.192-.151.285-.035.417-.054.863-.09 1.28-.178 2.834-.339 5.699-.518 8.533-.057 1.063-.544 1.859-1.508 2.376l-3.758 2.17 1.92 3.325 1.449-.837 2.309-1.333c.799-.461 1.621-.54 2.501-.177.251.093.472.202.74.325 2.982 1.406 5.917 2.799 8.852 4.193.158.067.374.101.522.015 1.349-.739 2.663-1.537 4.054-2.34-.187-.051-.297-.106-.408-.161zm21.457-34.796l16.334-9.43-1.903-3.296-20.003 11.549 11.777 20.399 20.004-11.55-1.92-3.325-16.335 9.431-7.954-13.778zm40.51-24.141c-1.055-1.212-2.385-1.671-3.947-1.165-.631.206-1.274.459-1.866.8l-16.275 9.397-.326.188 11.794 20.428 3.64-2.101-9.857-17.073c.089-.052.16-.132.22-.167l11.777-6.799c1.065-.615 1.813-.414 2.443.608.137.238 2.824 4.823 2.944 5.031.137.238.274.475.381.73.588 1.086.372 1.805-.694 2.42l-8.344 4.817 1.937 3.356 9.321-5.382a9.854 9.854 0 001.643-1.186c1.219-1.1 1.517-2.499.965-4.001-.125-.285-.233-.539-.387-.807l-1.611-2.791-1.869-3.236-1.371-2.375c-.167-.221-.334-.441-.518-.692z" fill="#1A1919"/></g><g opacity=".16" clip-path="url(#clip2)"><path d="M516.521 226.968c-.631.205-1.274.458-1.866.8l-4.468 2.58 1.937 3.355 3.521-2.033c1.065-.615 1.813-.414 2.443.609l.823 1.425 3.669-2.119-1.594-2.761c-.155-.267-.321-.488-.505-.738-1.038-1.182-2.398-1.624-3.96-1.118zm7.755 16.029c.588 1.086.372 1.805-.694 2.42l-5.326 3.075-5.297 3.059c-1.065.615-1.813.413-2.443-.609l-5.417-9.383-.771-1.336c-.588-1.086-.372-1.805.694-2.42l3.255-1.879-1.937-3.355-4.232 2.443c-.592.341-1.132.772-1.626 1.216-1.219 1.099-1.516 2.498-.964 4.001.124.284.232.539.386.806l1.423 2.464.154.268 6.12 10.6c.155.267.321.487.505.738 1.055 1.212 2.385 1.671 3.948 1.165.63-.206 1.274-.459 1.866-.8l3.343-1.931 2.93-1.691 2.929-1.692 3.344-1.93c.592-.342 1.133-.773 1.626-1.216 1.22-1.1 1.517-2.499.965-4.001-.095-.302-.232-.539-.387-.806l-1.594-2.762-3.669 2.119c.492.784.835 1.378.869 1.437zm20.489-21.37l-9.884 5.706 1.886 3.267 9.884-5.707-1.886-3.266zm-59.756 50.534l3.61-2.084-11.794-20.428-3.611 2.084 11.795 20.428zm21.874-13.025c-4.071-1.925-8.112-3.868-12.166-5.763-.285-.152-.4-.284-.389-.607.266-4.39.516-8.81.736-13.212.008-.124-.002-.276.018-.446l-4.113 2.374c-.088.052-.126.192-.151.285-.035.417-.054.863-.09 1.28-.178 2.834-.339 5.699-.518 8.533-.057 1.063-.544 1.859-1.508 2.376l-3.758 2.17 1.92 3.325 1.449-.837 2.309-1.333c.799-.461 1.621-.54 2.501-.177.251.093.472.202.74.325 2.982 1.406 5.917 2.799 8.852 4.193.158.067.374.101.522.015 1.349-.739 2.663-1.537 4.054-2.34-.187-.051-.297-.106-.408-.161zm21.457-34.796l16.334-9.43-1.903-3.296-20.003 11.549 11.777 20.399 20.004-11.55-1.92-3.325-16.335 9.431-7.954-13.778zm40.51-24.141c-1.055-1.212-2.385-1.671-3.947-1.165-.631.206-1.274.459-1.866.8l-16.275 9.397-.326.188 11.794 20.428 3.64-2.101-9.857-17.073c.089-.052.16-.132.22-.167l11.777-6.799c1.065-.615 1.813-.414 2.443.608.137.238 2.824 4.823 2.944 5.031.137.238.274.475.381.73.588 1.086.372 1.805-.694 2.42l-8.344 4.817 1.937 3.356 9.321-5.382a9.854 9.854 0 001.643-1.186c1.219-1.1 1.517-2.499.965-4.001-.125-.285-.233-.539-.387-.807l-1.611-2.791-1.869-3.236-1.371-2.375c-.167-.221-.334-.441-.518-.692z" fill="#1A1919"/></g><g opacity=".16" clip-path="url(#clip3)"><path d="M133.521 289.968c-.631.205-1.274.458-1.866.8l-4.468 2.58 1.937 3.355 3.521-2.033c1.065-.615 1.813-.414 2.443.609l.823 1.425 3.669-2.119-1.594-2.761c-.155-.267-.321-.488-.505-.738-1.038-1.182-2.398-1.624-3.96-1.118zm7.755 16.029c.588 1.086.372 1.805-.694 2.42l-5.326 3.075-5.297 3.059c-1.065.615-1.813.413-2.443-.609l-5.417-9.383-.771-1.336c-.588-1.086-.372-1.805.694-2.42l3.255-1.879-1.937-3.355-4.232 2.443c-.592.341-1.132.772-1.626 1.216-1.219 1.099-1.516 2.498-.964 4.001.124.284.232.539.386.806l1.423 2.464.154.268 6.12 10.6c.155.267.321.487.505.738 1.055 1.212 2.385 1.671 3.948 1.165.63-.206 1.274-.459 1.866-.8l3.343-1.931 2.93-1.691 2.929-1.692 3.344-1.93c.592-.342 1.133-.773 1.626-1.216 1.22-1.1 1.517-2.499.965-4.001-.095-.302-.232-.539-.387-.806l-1.594-2.762-3.669 2.119c.492.784.835 1.378.869 1.437zm20.489-21.37l-9.884 5.706 1.886 3.267 9.884-5.707-1.886-3.266zm-59.756 50.534l3.61-2.084-11.794-20.428-3.61 2.084 11.794 20.428zm21.874-13.025c-4.071-1.925-8.112-3.868-12.166-5.763-.285-.152-.4-.284-.389-.607.266-4.39.516-8.81.736-13.212.008-.124-.002-.276.018-.446l-4.113 2.374c-.088.052-.126.192-.151.285-.035.417-.054.863-.09 1.28-.178 2.834-.339 5.699-.518 8.533-.057 1.063-.544 1.859-1.508 2.376l-3.758 2.17 1.92 3.325 1.449-.837 2.309-1.333c.799-.461 1.621-.54 2.501-.177.251.093.472.202.74.325 2.982 1.406 5.917 2.799 8.852 4.193.158.067.374.101.522.015 1.349-.739 2.663-1.537 4.054-2.34-.187-.051-.297-.106-.408-.161zm21.457-34.796l16.334-9.43-1.903-3.296-20.003 11.549 11.777 20.399 20.004-11.55-1.92-3.325-16.335 9.431-7.954-13.778zm40.51-24.141c-1.055-1.212-2.385-1.671-3.947-1.165-.631.206-1.274.459-1.866.8l-16.275 9.397-.326.188 11.794 20.428 3.64-2.101-9.857-17.073c.089-.052.16-.132.22-.167l11.777-6.799c1.065-.615 1.813-.414 2.443.608.137.238 2.824 4.823 2.944 5.031.137.238.274.475.381.73.588 1.086.372 1.805-.694 2.42l-8.344 4.817 1.937 3.356 9.321-5.382a9.854 9.854 0 001.643-1.186c1.219-1.1 1.517-2.499.965-4.001-.125-.285-.233-.539-.387-.807l-1.611-2.791-1.869-3.236-1.371-2.375c-.167-.221-.334-.441-.518-.692z" fill="#1A1919"/></g><g opacity=".16" clip-path="url(#clip4)"><path d="M351.521 159.968c-.631.205-1.274.458-1.866.8l-4.468 2.58 1.937 3.355 3.521-2.033c1.065-.615 1.813-.414 2.443.609l.823 1.425 3.669-2.119-1.594-2.761c-.155-.267-.321-.488-.505-.738-1.038-1.182-2.398-1.624-3.96-1.118zm7.755 16.029c.588 1.086.372 1.805-.694 2.42l-5.326 3.075-5.297 3.059c-1.065.615-1.813.413-2.443-.609l-5.417-9.383-.771-1.336c-.588-1.086-.372-1.805.694-2.42l3.255-1.879-1.937-3.355-4.232 2.443c-.592.341-1.132.772-1.626 1.216-1.219 1.099-1.516 2.498-.964 4.001.124.284.232.539.386.806l1.423 2.464.154.268 6.12 10.6c.155.267.321.487.505.738 1.055 1.212 2.385 1.671 3.948 1.165.63-.206 1.274-.459 1.866-.8l3.343-1.931 2.93-1.691 2.929-1.692 3.344-1.93c.592-.342 1.133-.773 1.626-1.216 1.22-1.1 1.517-2.499.965-4.001-.095-.302-.232-.539-.387-.806l-1.594-2.762-3.669 2.119c.492.784.835 1.378.869 1.437zm20.489-21.37l-9.884 5.706 1.886 3.267 9.884-5.707-1.886-3.266zm-59.756 50.534l3.61-2.084-11.794-20.428-3.611 2.084 11.795 20.428zm21.874-13.025c-4.071-1.925-8.112-3.868-12.166-5.763-.285-.152-.4-.284-.389-.607.266-4.39.516-8.81.736-13.212.008-.124-.002-.276.018-.446l-4.113 2.374c-.088.052-.126.192-.151.285-.035.417-.054.863-.09 1.28-.178 2.834-.339 5.699-.518 8.533-.057 1.063-.544 1.859-1.508 2.376l-3.758 2.17 1.92 3.325 1.449-.837 2.309-1.333c.799-.461 1.621-.54 2.501-.177.251.093.472.202.74.325 2.982 1.406 5.917 2.799 8.852 4.193.158.067.374.101.522.015 1.349-.739 2.663-1.537 4.054-2.34-.187-.051-.297-.106-.408-.161zm21.457-34.796l16.334-9.43-1.903-3.296-20.003 11.549 11.777 20.399 20.004-11.55-1.92-3.325-16.335 9.431-7.954-13.778zm40.51-24.141c-1.055-1.212-2.385-1.671-3.947-1.165-.631.206-1.274.459-1.866.8l-16.275 9.397-.326.188 11.794 20.428 3.64-2.101-9.857-17.073c.089-.052.16-.132.22-.167l11.777-6.799c1.065-.615 1.813-.414 2.443.608.137.238 2.824 4.823 2.944 5.031.137.238.274.475.381.73.588 1.086.372 1.805-.694 2.42l-8.344 4.817 1.937 3.356 9.321-5.382a9.854 9.854 0 001.643-1.186c1.219-1.1 1.517-2.499.965-4.001-.125-.285-.233-.539-.387-.807l-1.611-2.791-1.869-3.236-1.371-2.375c-.167-.221-.334-.441-.518-.692z" fill="#1A1919"/></g><g opacity=".16" clip-path="url(#clip5)"><path d="M569.521 29.968c-.631.206-1.274.458-1.866.8l-4.468 2.58 1.937 3.355 3.521-2.033c1.065-.615 1.813-.414 2.443.609l.823 1.425 3.669-2.119-1.594-2.761c-.155-.267-.321-.488-.505-.738-1.038-1.182-2.398-1.624-3.96-1.118zm7.755 16.03c.588 1.086.372 1.804-.694 2.42l-5.326 3.075-5.297 3.058c-1.065.615-1.813.413-2.443-.61l-5.417-9.382-.771-1.336c-.588-1.086-.372-1.805.694-2.42l3.255-1.88-1.937-3.354-4.232 2.443c-.592.341-1.132.772-1.626 1.215-1.219 1.1-1.516 2.5-.964 4.002.124.284.232.539.386.806l1.423 2.464.154.268 6.12 10.6c.155.267.321.488.505.738 1.055 1.212 2.385 1.67 3.948 1.165.63-.206 1.274-.459 1.866-.8 1.094-.633 2.219-1.282 3.343-1.93.977-.565 1.953-1.129 2.93-1.692l2.929-1.692 3.344-1.93c.592-.342 1.133-.773 1.626-1.216 1.22-1.1 1.517-2.499.965-4.001-.095-.302-.232-.54-.387-.806l-1.594-2.762-3.669 2.119c.492.784.835 1.378.869 1.438zm20.489-21.37l-9.884 5.706 1.886 3.266 9.884-5.707-1.886-3.266zM538.009 75.16l3.61-2.084-11.794-20.428-3.611 2.084 11.795 20.428zm21.874-13.025c-4.071-1.925-8.112-3.867-12.166-5.763-.285-.152-.4-.284-.389-.607.266-4.39.516-8.81.736-13.212.008-.123-.002-.276.018-.447l-4.113 2.375c-.088.051-.126.192-.151.285-.035.417-.054.863-.09 1.28-.178 2.834-.339 5.699-.518 8.533-.057 1.063-.544 1.859-1.508 2.376l-3.758 2.17 1.92 3.325 1.449-.837 2.309-1.333c.799-.46 1.621-.54 2.501-.177.251.093.472.203.74.325 2.982 1.406 5.917 2.8 8.852 4.193.158.067.374.1.522.015 1.349-.739 2.663-1.537 4.054-2.34-.187-.05-.297-.106-.408-.16zM581.34 27.34l16.334-9.43-1.903-3.296-20.003 11.55 11.777 20.398 20.004-11.55-1.92-3.325-16.335 9.43-7.954-13.777zM621.85 3.2c-1.055-1.213-2.385-1.672-3.947-1.166-.631.206-1.274.459-1.866.8l-16.275 9.397-.326.188 11.794 20.428 3.64-2.101-9.857-17.073c.089-.052.16-.133.22-.167l11.777-6.8c1.065-.614 1.813-.413 2.443.61.137.237 2.824 4.822 2.944 5.03.137.238.274.475.381.73.588 1.086.372 1.804-.694 2.42l-8.344 4.817 1.937 3.356 9.321-5.382a9.82 9.82 0 001.643-1.186c1.219-1.1 1.517-2.499.965-4.001-.125-.285-.233-.54-.387-.807l-1.611-2.79-1.869-3.237-1.371-2.375c-.167-.22-.334-.441-.518-.692z" fill="#1A1919"/></g><g opacity=".16" clip-path="url(#clip6)"><path d="M166.521 116.968c-.631.205-1.274.458-1.866.8l-4.468 2.58 1.937 3.355 3.521-2.033c1.065-.615 1.813-.414 2.443.609l.823 1.425 3.669-2.119-1.594-2.761c-.155-.267-.321-.488-.505-.738-1.038-1.182-2.398-1.624-3.96-1.118zm7.755 16.029c.588 1.086.372 1.805-.694 2.42l-5.326 3.075-5.297 3.059c-1.065.615-1.813.413-2.443-.609l-5.417-9.383-.771-1.336c-.588-1.086-.372-1.805.694-2.42l3.255-1.879-1.937-3.355-4.232 2.443c-.592.341-1.132.772-1.626 1.216-1.219 1.099-1.516 2.498-.964 4.001.124.284.232.539.386.806l1.423 2.464.154.268 6.12 10.6c.155.267.321.487.505.738 1.055 1.212 2.385 1.671 3.948 1.165.63-.206 1.274-.459 1.866-.8l3.343-1.931 2.93-1.691 2.929-1.692 3.344-1.93c.592-.342 1.133-.773 1.626-1.216 1.22-1.1 1.517-2.499.965-4.001-.095-.302-.232-.539-.387-.806l-1.594-2.762-3.669 2.119c.492.784.835 1.378.869 1.437zm20.489-21.37l-9.884 5.706 1.886 3.267 9.884-5.707-1.886-3.266zm-59.756 50.534l3.61-2.084-11.794-20.428-3.611 2.084 11.795 20.428zm21.874-13.025c-4.071-1.925-8.112-3.868-12.166-5.763-.285-.152-.4-.284-.389-.607.266-4.39.516-8.81.736-13.212.008-.124-.002-.276.018-.446l-4.113 2.374c-.088.052-.126.192-.151.285-.035.417-.054.863-.09 1.28-.178 2.834-.339 5.699-.518 8.533-.057 1.063-.544 1.859-1.508 2.376l-3.758 2.17 1.92 3.325 1.449-.837 2.309-1.333c.799-.461 1.621-.54 2.501-.177.251.093.472.202.74.325 2.982 1.406 5.917 2.799 8.852 4.193.158.067.374.101.522.015 1.349-.739 2.663-1.537 4.054-2.34-.187-.051-.297-.106-.408-.161zm21.457-34.796l16.334-9.43-1.903-3.296-20.003 11.549 11.777 20.399 20.004-11.55-1.92-3.325-16.335 9.431-7.954-13.778zm40.51-24.14c-1.055-1.213-2.385-1.672-3.947-1.166-.631.206-1.274.459-1.866.8l-16.275 9.397-.326.188 11.794 20.428 3.64-2.101-9.857-17.073c.089-.052.16-.132.22-.167l11.777-6.8c1.065-.614 1.813-.413 2.443.61.137.237 2.824 4.822 2.944 5.03.137.238.274.475.381.73.588 1.086.372 1.805-.694 2.42l-8.344 4.817 1.937 3.356 9.321-5.382a9.854 9.854 0 001.643-1.186c1.219-1.1 1.517-2.499.965-4.001-.125-.285-.233-.54-.387-.807l-1.611-2.79-1.869-3.237-1.371-2.376a58.97 58.97 0 01-.518-.69z" fill="#1A1919"/></g><g opacity=".16" clip-path="url(#clip7)"><path d="M47.52 682.968c-.63.205-1.273.458-1.865.8l-4.468 2.58 1.937 3.355 3.521-2.033c1.065-.615 1.813-.414 2.443.609l.823 1.425 3.669-2.119-1.594-2.761c-.155-.267-.321-.488-.505-.738-1.038-1.182-2.398-1.624-3.96-1.118zm7.756 16.029c.588 1.086.372 1.805-.694 2.42l-5.326 3.075-5.297 3.059c-1.065.615-1.813.413-2.443-.609a164255.296 164255.296 0 01-6.188-10.719c-.588-1.086-.372-1.805.694-2.42l3.255-1.879-1.937-3.355-4.232 2.443c-.592.341-1.132.772-1.626 1.216-1.22 1.099-1.516 2.498-.964 4.001.124.284.232.539.386.806l1.423 2.464.154.268 6.12 10.6c.154.267.321.487.505.738 1.055 1.212 2.385 1.671 3.948 1.165.63-.206 1.274-.459 1.866-.8l3.343-1.931 2.93-1.691 2.93-1.692 3.343-1.93c.592-.342 1.133-.773 1.626-1.216 1.22-1.1 1.517-2.499.965-4.001-.095-.302-.232-.539-.387-.806l-1.594-2.762-3.67 2.119c.493.784.836 1.378.87 1.437zm20.489-21.37l-9.884 5.706 1.886 3.267 9.884-5.707-1.886-3.266zm-59.756 50.534l3.61-2.084-11.794-20.428-3.61 2.084 11.794 20.428zm21.874-13.025c-4.07-1.925-8.112-3.868-12.166-5.763-.285-.152-.4-.284-.39-.607.267-4.39.517-8.81.737-13.212.008-.124-.002-.276.018-.446l-4.113 2.374c-.088.052-.126.192-.15.285-.036.417-.055.863-.09 1.28-.18 2.834-.34 5.699-.519 8.533-.057 1.063-.544 1.859-1.508 2.376l-3.759 2.17 1.92 3.325 1.45-.837 2.309-1.333c.799-.461 1.621-.54 2.501-.177.251.093.472.202.74.325 2.982 1.406 5.917 2.799 8.852 4.193.157.067.374.101.522.015 1.349-.739 2.663-1.537 4.054-2.34a1.999 1.999 0 01-.408-.161zM59.34 680.34l16.334-9.43-1.903-3.296-20.003 11.549 11.777 20.399 20.004-11.55-1.92-3.325-16.335 9.431-7.954-13.778zm40.51-24.141c-1.054-1.212-2.385-1.671-3.947-1.165-.631.206-1.274.459-1.866.8l-16.275 9.397-.326.188 11.794 20.428 3.64-2.101-9.857-17.073c.089-.052.16-.132.22-.167l11.777-6.799c1.065-.615 1.813-.414 2.443.608.137.238 2.824 4.823 2.944 5.031.137.238.274.475.381.73.588 1.086.372 1.805-.694 2.42l-8.344 4.817 1.937 3.356 9.321-5.382a9.854 9.854 0 001.643-1.186c1.219-1.1 1.517-2.499.965-4.001-.125-.285-.233-.539-.387-.807l-1.611-2.791-1.869-3.236-1.371-2.375c-.167-.221-.334-.441-.518-.692z" fill="#1A1919"/></g><g opacity=".16" clip-path="url(#clip8)"><path d="M265.521 552.968c-.631.205-1.274.458-1.866.8l-4.468 2.58 1.937 3.355 3.521-2.033c1.065-.615 1.813-.414 2.443.609l.823 1.425 3.669-2.119-1.594-2.761c-.155-.267-.321-.488-.505-.738-1.038-1.182-2.398-1.624-3.96-1.118zm7.755 16.029c.588 1.086.372 1.805-.694 2.42l-5.326 3.075-5.297 3.059c-1.065.615-1.813.413-2.443-.609l-5.417-9.383-.771-1.336c-.588-1.086-.372-1.805.694-2.42l3.255-1.879-1.937-3.355-4.232 2.443c-.592.341-1.132.772-1.626 1.216-1.219 1.099-1.516 2.498-.964 4.001.124.284.232.539.386.806l1.423 2.464.154.268 6.12 10.6c.155.267.321.487.505.738 1.055 1.212 2.385 1.671 3.948 1.165.63-.206 1.274-.459 1.866-.8l3.343-1.931 2.93-1.691 2.929-1.692 3.344-1.93c.592-.342 1.133-.773 1.626-1.216 1.22-1.1 1.517-2.499.965-4.001-.095-.302-.232-.539-.387-.806l-1.594-2.762-3.669 2.119c.492.784.835 1.378.869 1.437zm20.489-21.37l-9.884 5.706 1.886 3.267 9.884-5.707-1.886-3.266zm-59.756 50.534l3.61-2.084-11.794-20.428-3.611 2.084 11.795 20.428zm21.874-13.025c-4.071-1.925-8.112-3.868-12.166-5.763-.285-.152-.4-.284-.389-.607.266-4.39.516-8.81.736-13.212.008-.124-.002-.276.018-.446l-4.113 2.374c-.088.052-.126.192-.151.285-.035.417-.054.863-.09 1.28-.178 2.834-.339 5.699-.518 8.533-.057 1.063-.544 1.859-1.508 2.376l-3.758 2.17 1.92 3.325 1.449-.837 2.309-1.333c.799-.461 1.621-.54 2.501-.177.251.093.472.202.74.325 2.982 1.406 5.917 2.799 8.852 4.193.158.067.374.101.522.015 1.349-.739 2.663-1.537 4.054-2.34-.187-.051-.297-.106-.408-.161zm21.457-34.796l16.334-9.43-1.903-3.296-20.003 11.549 11.777 20.399 20.004-11.55-1.92-3.325-16.335 9.431-7.954-13.778zm40.51-24.141c-1.055-1.212-2.385-1.671-3.947-1.165-.631.206-1.274.459-1.866.8l-16.275 9.397-.326.188 11.794 20.428 3.64-2.101-9.857-17.073c.089-.052.16-.132.22-.167l11.777-6.799c1.065-.615 1.813-.414 2.443.608.137.238 2.824 4.823 2.944 5.031.137.238.274.475.381.73.588 1.086.372 1.805-.694 2.42l-8.344 4.817 1.937 3.356 9.321-5.382a9.854 9.854 0 001.643-1.186c1.219-1.1 1.517-2.499.965-4.001-.125-.285-.233-.539-.387-.807l-1.611-2.791-1.869-3.236-1.371-2.375c-.167-.221-.334-.441-.518-.692z" fill="#1A1919"/></g><g opacity=".16" clip-path="url(#clip9)"><path d="M483.521 422.968c-.631.205-1.274.458-1.866.8l-4.468 2.58 1.937 3.355 3.521-2.033c1.065-.615 1.813-.414 2.443.609l.823 1.425 3.669-2.119-1.594-2.761c-.155-.267-.321-.488-.505-.738-1.038-1.182-2.398-1.624-3.96-1.118zm7.755 16.029c.588 1.086.372 1.805-.694 2.42l-5.326 3.075-5.297 3.059c-1.065.615-1.813.413-2.443-.609l-5.417-9.383-.771-1.336c-.588-1.086-.372-1.805.694-2.42l3.255-1.879-1.937-3.355-4.232 2.443c-.592.341-1.132.772-1.626 1.216-1.219 1.099-1.516 2.498-.964 4.001.124.284.232.539.386.806l1.423 2.464.154.268 6.12 10.6c.155.267.321.487.505.738 1.055 1.212 2.385 1.671 3.948 1.165.63-.206 1.274-.459 1.866-.8l3.343-1.931 2.93-1.691 2.929-1.692 3.344-1.93c.592-.342 1.133-.773 1.626-1.216 1.22-1.1 1.517-2.499.965-4.001-.095-.302-.232-.539-.387-.806l-1.594-2.762-3.669 2.119c.492.784.835 1.378.869 1.437zm20.489-21.37l-9.884 5.706 1.886 3.267 9.884-5.707-1.886-3.266zm-59.756 50.534l3.61-2.084-11.794-20.428-3.611 2.084 11.795 20.428zm21.874-13.025c-4.071-1.925-8.112-3.868-12.166-5.763-.285-.152-.4-.284-.389-.607.266-4.39.516-8.81.736-13.212.008-.124-.002-.276.018-.446l-4.113 2.374c-.088.052-.126.192-.151.285-.035.417-.054.863-.09 1.28-.178 2.834-.339 5.699-.518 8.533-.057 1.063-.544 1.859-1.508 2.376l-3.758 2.17 1.92 3.325 1.449-.837 2.309-1.333c.799-.461 1.621-.54 2.501-.177.251.093.472.202.74.325 2.982 1.406 5.917 2.799 8.852 4.193.158.067.374.101.522.015 1.349-.739 2.663-1.537 4.054-2.34-.187-.051-.297-.106-.408-.161zm21.457-34.796l16.334-9.43-1.903-3.296-20.003 11.549 11.777 20.399 20.004-11.55-1.92-3.325-16.335 9.431-7.954-13.778zm40.51-24.141c-1.055-1.212-2.385-1.671-3.947-1.165-.631.206-1.274.459-1.866.8l-16.275 9.397-.326.188 11.794 20.428 3.64-2.101-9.857-17.073c.089-.052.16-.132.22-.167l11.777-6.799c1.065-.615 1.813-.414 2.443.608.137.238 2.824 4.823 2.944 5.031.137.238.274.475.381.73.588 1.086.372 1.805-.694 2.42l-8.344 4.817 1.937 3.356 9.321-5.382a9.854 9.854 0 001.643-1.186c1.219-1.1 1.517-2.499.965-4.001-.125-.285-.233-.539-.387-.807l-1.611-2.791-1.869-3.236-1.371-2.375c-.167-.221-.334-.441-.518-.692z" fill="#1A1919"/></g><g opacity=".16" clip-path="url(#clip10)"><path d="M197.521 962.968c-.631.205-1.274.458-1.866.8l-4.468 2.58 1.937 3.355 3.521-2.033c1.065-.615 1.813-.414 2.443.609l.823 1.425 3.669-2.119-1.594-2.761c-.155-.267-.321-.488-.505-.738-1.038-1.182-2.398-1.624-3.96-1.118zm7.755 16.029c.588 1.086.372 1.805-.694 2.42l-5.326 3.075-5.297 3.059c-1.065.615-1.813.413-2.443-.609l-5.417-9.383-.771-1.336c-.588-1.086-.372-1.805.694-2.42l3.255-1.879-1.937-3.355-4.232 2.443c-.592.341-1.132.772-1.626 1.216-1.219 1.099-1.516 2.498-.964 4.001.124.284.232.539.386.806l1.423 2.464.154.268 6.12 10.6c.155.267.321.487.505.738 1.055 1.212 2.385 1.671 3.948 1.165.63-.206 1.274-.459 1.866-.8l3.343-1.931 2.93-1.691 2.929-1.692 3.344-1.93c.592-.342 1.133-.773 1.626-1.216 1.22-1.1 1.517-2.499.965-4.001-.095-.302-.232-.539-.387-.806l-1.594-2.762-3.669 2.119c.492.784.835 1.378.869 1.437zm20.489-21.37l-9.884 5.706 1.886 3.267 9.884-5.707-1.886-3.266zm-59.756 50.533l3.61-2.08-11.794-20.431-3.611 2.084 11.795 20.427zm21.874-13.024c-4.071-1.925-8.112-3.868-12.166-5.763-.285-.152-.4-.284-.389-.607.266-4.39.516-8.81.736-13.212.008-.124-.002-.276.018-.446l-4.113 2.374c-.088.052-.126.192-.151.285-.035.417-.054.863-.09 1.28-.178 2.834-.339 5.699-.518 8.533-.057 1.063-.544 1.859-1.508 2.376l-3.758 2.17 1.92 3.325 1.449-.837 2.309-1.333c.799-.461 1.621-.54 2.501-.177.251.093.472.202.74.325 2.982 1.406 5.917 2.799 8.852 4.193.158.067.374.101.522.015 1.349-.739 2.663-1.537 4.054-2.34-.187-.051-.297-.106-.408-.161zm21.457-34.796l16.334-9.43-1.903-3.296-20.003 11.549 11.777 20.399 20.004-11.55-1.92-3.325-16.335 9.431-7.954-13.778zm40.51-24.141c-1.055-1.212-2.385-1.671-3.947-1.165-.631.206-1.274.459-1.866.8l-16.275 9.397-.326.188 11.794 20.428 3.64-2.101-9.857-17.073c.089-.052.16-.132.22-.167l11.777-6.799c1.065-.615 1.813-.414 2.443.608.137.238 2.824 4.823 2.944 5.031.137.238.274.475.381.73.588 1.086.372 1.805-.694 2.42l-8.344 4.817 1.937 3.356 9.321-5.382a9.854 9.854 0 001.643-1.186c1.219-1.1 1.517-2.499.965-4.001-.125-.285-.233-.539-.387-.807l-1.611-2.791-1.869-3.236-1.371-2.375c-.167-.221-.334-.441-.518-.692z" fill="#1A1919"/></g><g opacity=".16" clip-path="url(#clip11)"><path d="M415.521 832.968c-.631.205-1.274.458-1.866.8l-4.468 2.58 1.937 3.355 3.521-2.033c1.065-.615 1.813-.414 2.443.609l.823 1.425 3.669-2.119-1.594-2.761c-.155-.267-.321-.488-.505-.738-1.038-1.182-2.398-1.624-3.96-1.118zm7.755 16.029c.588 1.086.372 1.805-.694 2.42l-5.326 3.075-5.297 3.059c-1.065.615-1.813.413-2.443-.609l-5.417-9.383-.771-1.336c-.588-1.086-.372-1.805.694-2.42l3.255-1.879-1.937-3.355-4.232 2.443c-.592.341-1.132.772-1.626 1.216-1.219 1.099-1.516 2.498-.964 4.001.124.284.232.539.386.806l1.423 2.464.154.268 6.12 10.6c.155.267.321.487.505.738 1.055 1.212 2.385 1.671 3.948 1.165.63-.206 1.274-.459 1.866-.8l3.343-1.931 2.93-1.691 2.929-1.692 3.344-1.93c.592-.342 1.133-.773 1.626-1.216 1.22-1.1 1.517-2.499.965-4.001-.095-.302-.232-.539-.387-.806l-1.594-2.762-3.669 2.119c.492.784.835 1.378.869 1.437zm20.489-21.37l-9.884 5.706 1.886 3.267 9.884-5.707-1.886-3.266zm-59.756 50.534l3.61-2.084-11.794-20.428-3.611 2.084 11.795 20.428zm21.874-13.025c-4.071-1.925-8.112-3.868-12.166-5.763-.285-.152-.4-.284-.389-.607.266-4.39.516-8.81.736-13.212.008-.124-.002-.276.018-.446l-4.113 2.374c-.088.052-.126.192-.151.285-.035.417-.054.863-.09 1.28-.178 2.834-.339 5.699-.518 8.533-.057 1.063-.544 1.859-1.508 2.376l-3.758 2.17 1.92 3.325 1.449-.837 2.309-1.333c.799-.461 1.621-.54 2.501-.177.251.093.472.202.74.325 2.982 1.406 5.917 2.799 8.852 4.193.158.067.374.101.522.015 1.349-.739 2.663-1.537 4.054-2.34-.187-.051-.297-.106-.408-.161zm21.457-34.796l16.334-9.43-1.903-3.296-20.003 11.549 11.777 20.399 20.004-11.55-1.92-3.325-16.335 9.431-7.954-13.778zm40.51-24.141c-1.055-1.212-2.385-1.671-3.947-1.165-.631.206-1.274.459-1.866.8l-16.275 9.397-.326.188 11.794 20.428 3.64-2.101-9.857-17.073c.089-.052.16-.132.22-.167l11.777-6.799c1.065-.615 1.813-.414 2.443.608.137.238 2.824 4.823 2.944 5.031.137.238.274.475.381.73.588 1.086.372 1.805-.694 2.42l-8.344 4.817 1.937 3.356 9.321-5.382a9.854 9.854 0 001.643-1.186c1.219-1.1 1.517-2.499.965-4.001-.125-.285-.233-.539-.387-.807l-1.611-2.791-1.869-3.236-1.371-2.375c-.167-.221-.334-.441-.518-.692z" fill="#1A1919"/></g><g opacity=".16" clip-path="url(#clip12)"><path d="M231.521 757.968c-.631.205-1.274.458-1.866.8l-4.468 2.58 1.937 3.355 3.521-2.033c1.065-.615 1.813-.414 2.443.609l.823 1.425 3.669-2.119-1.594-2.761c-.155-.267-.321-.488-.505-.738-1.038-1.182-2.398-1.624-3.96-1.118zm7.755 16.029c.588 1.086.372 1.805-.694 2.42l-5.326 3.075-5.297 3.059c-1.065.615-1.813.413-2.443-.609l-5.417-9.383-.771-1.336c-.588-1.086-.372-1.805.694-2.42l3.255-1.879-1.937-3.355-4.232 2.443c-.592.341-1.132.772-1.626 1.216-1.219 1.099-1.516 2.498-.964 4.001.124.284.232.539.386.806l1.423 2.464.154.268 6.12 10.6c.155.267.321.487.505.738 1.055 1.212 2.385 1.671 3.948 1.165.63-.206 1.274-.459 1.866-.8l3.343-1.931 2.93-1.691 2.929-1.692 3.344-1.93c.592-.342 1.133-.773 1.626-1.216 1.22-1.1 1.517-2.499.965-4.001-.095-.302-.232-.539-.387-.806l-1.594-2.762-3.669 2.119c.492.784.835 1.378.869 1.437zm20.489-21.37l-9.884 5.706 1.886 3.267 9.884-5.707-1.886-3.266zm-59.756 50.534l3.61-2.084-11.794-20.428-3.611 2.084 11.795 20.428zm21.874-13.025c-4.071-1.925-8.112-3.868-12.166-5.763-.285-.152-.4-.284-.389-.607.266-4.39.516-8.81.736-13.212.008-.124-.002-.276.018-.446l-4.113 2.374c-.088.052-.126.192-.151.285-.035.417-.054.863-.09 1.28-.178 2.834-.339 5.699-.518 8.533-.057 1.063-.544 1.859-1.508 2.376l-3.758 2.17 1.92 3.325 1.449-.837 2.309-1.333c.799-.461 1.621-.54 2.501-.177.251.093.472.202.74.325 2.982 1.406 5.917 2.799 8.852 4.193.158.067.374.101.522.015 1.349-.739 2.663-1.537 4.054-2.34-.187-.051-.297-.106-.408-.161zm21.457-34.796l16.334-9.43-1.903-3.296-20.003 11.549 11.777 20.399 20.004-11.55-1.92-3.325-16.335 9.431-7.954-13.778zm40.51-24.141c-1.055-1.212-2.385-1.671-3.947-1.165-.631.206-1.274.459-1.866.8l-16.275 9.397-.326.188 11.794 20.428 3.64-2.101-9.857-17.073c.089-.052.16-.132.22-.167l11.777-6.799c1.065-.615 1.813-.414 2.443.608.137.238 2.824 4.823 2.944 5.031.137.238.274.475.381.73.588 1.086.372 1.805-.694 2.42l-8.344 4.817 1.937 3.356 9.321-5.382a9.854 9.854 0 001.643-1.186c1.219-1.1 1.517-2.499.965-4.001-.125-.285-.233-.539-.387-.807l-1.611-2.791-1.869-3.236-1.371-2.375c-.167-.221-.334-.441-.518-.692z" fill="#1A1919"/></g><g opacity=".16" clip-path="url(#clip13)"><path d="M449.521 627.968c-.631.205-1.274.458-1.866.8l-4.468 2.58 1.937 3.355 3.521-2.033c1.065-.615 1.813-.414 2.443.609l.823 1.425 3.669-2.119-1.594-2.761c-.155-.267-.321-.488-.505-.738-1.038-1.182-2.398-1.624-3.96-1.118zm7.755 16.029c.588 1.086.372 1.805-.694 2.42l-5.326 3.075-5.297 3.059c-1.065.615-1.813.413-2.443-.609l-5.417-9.383-.771-1.336c-.588-1.086-.372-1.805.694-2.42l3.255-1.879-1.937-3.355-4.232 2.443c-.592.341-1.132.772-1.626 1.216-1.219 1.099-1.516 2.498-.964 4.001.124.284.232.539.386.806l1.423 2.464.154.268 6.12 10.6c.155.267.321.487.505.738 1.055 1.212 2.385 1.671 3.948 1.165.63-.206 1.274-.459 1.866-.8l3.343-1.931 2.93-1.691 2.929-1.692 3.344-1.93c.592-.342 1.133-.773 1.626-1.216 1.22-1.1 1.517-2.499.965-4.001-.095-.302-.232-.539-.387-.806l-1.594-2.762-3.669 2.119c.492.784.835 1.378.869 1.437zm20.489-21.37l-9.884 5.706 1.886 3.267 9.884-5.707-1.886-3.266zm-59.756 50.534l3.61-2.084-11.794-20.428-3.611 2.084 11.795 20.428zm21.874-13.025c-4.071-1.925-8.112-3.868-12.166-5.763-.285-.152-.4-.284-.389-.607.266-4.39.516-8.81.736-13.212.008-.124-.002-.276.018-.446l-4.113 2.374c-.088.052-.126.192-.151.285-.035.417-.054.863-.09 1.28-.178 2.834-.339 5.699-.518 8.533-.057 1.063-.544 1.859-1.508 2.376l-3.758 2.17 1.92 3.325 1.449-.837 2.309-1.333c.799-.461 1.621-.54 2.501-.177.251.093.472.202.74.325 2.982 1.406 5.917 2.799 8.852 4.193.158.067.374.101.522.015 1.349-.739 2.663-1.537 4.054-2.34-.187-.051-.297-.106-.408-.161zm21.457-34.796l16.334-9.43-1.903-3.296-20.003 11.549 11.777 20.399 20.004-11.55-1.92-3.325-16.335 9.431-7.954-13.778zm40.51-24.141c-1.055-1.212-2.385-1.671-3.947-1.165-.631.206-1.274.459-1.866.8l-16.275 9.397-.326.188 11.794 20.428 3.64-2.101-9.857-17.073c.089-.052.16-.132.22-.167l11.777-6.799c1.065-.615 1.813-.414 2.443.608.137.238 2.824 4.823 2.944 5.031.137.238.274.475.381.73.588 1.086.372 1.805-.694 2.42l-8.344 4.817 1.937 3.356 9.321-5.382a9.854 9.854 0 001.643-1.186c1.219-1.1 1.517-2.499.965-4.001-.125-.285-.233-.539-.387-.807l-1.611-2.791-1.869-3.236-1.371-2.375c-.167-.221-.334-.441-.518-.692z" fill="#1A1919"/></g></g><defs><clipPath id="clip0"><path fill="#fff" transform="rotate(-30 972.972 186.707)" d="M0 0h109v24H0z"/></clipPath><clipPath id="clip1"><path fill="#fff" transform="rotate(-30 839.389 -285.086)" d="M0 0h109v24H0z"/></clipPath><clipPath id="clip2"><path fill="#fff" transform="rotate(-30 705.805 -756.88)" d="M0 0h109v24H0z"/></clipPath><clipPath id="clip3"><path fill="#fff" transform="rotate(-30 631.865 -10.692)" d="M0 0h109v24H0z"/></clipPath><clipPath id="clip4"><path fill="#fff" transform="rotate(-30 498.282 -482.486)" d="M0 0h109v24H0z"/></clipPath><clipPath id="clip5"><path fill="#fff" transform="rotate(-30 364.698 -954.28)" d="M0 0h109v24H0z"/></clipPath><clipPath id="clip6"><path fill="#fff" transform="rotate(-30 325.543 -158.771)" d="M0 0h109v24H0z"/></clipPath><clipPath id="clip7"><path fill="#fff" transform="rotate(-30 1322.213 346.286)" d="M0 0h109v24H0z"/></clipPath><clipPath id="clip8"><path fill="#fff" transform="rotate(-30 1188.63 -125.508)" d="M0 0h109v24H0z"/></clipPath><clipPath id="clip9"><path fill="#fff" transform="rotate(-30 1055.046 -597.301)" d="M0 0h109v24H0z"/></clipPath><clipPath id="clip10"><path fill="#fff" transform="rotate(-30 1919.7 206.382)" d="M0 0h109v24H0z"/></clipPath><clipPath id="clip11"><path fill="#fff" transform="rotate(-30 1786.117 -265.411)" d="M0 0h109v24H0z"/></clipPath><clipPath id="clip12"><path fill="#fff" transform="rotate(-30 1554.165 40.437)" d="M0 0h109v24H0z"/></clipPath><clipPath id="clip13"><path fill="#fff" transform="rotate(-30 1420.582 -431.356)" d="M0 0h109v24H0z"/></clipPath><filter id="filter0_d" x="0" y="0" width="636.397" height="1016.28" filterUnits="userSpaceOnUse" color-interpolation-filters="sRGB"><feFlood flood-opacity="0" result="BackgroundImageFix"/><feColorMatrix in="SourceAlpha" values="0 0 0 0 0 0 0 0 0 0 0 0 0 0 0 0 0 0 127 0"/><feOffset dy="4"/><feGaussianBlur stdDeviation="2"/><feColorMatrix values="0 0 0 0 0 0 0 0 0 0 0 0 0 0 0 0 0 0 0.25 0"/><feBlend in2="BackgroundImageFix" result="effect1_dropShadow"/><feBlend in="SourceGraphic" in2="effect1_dropShadow" result="shape"/></filter></defs></svg>