<svg width="27" height="27" fill="none" xmlns="http://www.w3.org/2000/svg"><rect x="1.688" y="1.688" width="23.625" height="23.625" rx="6" fill="url(#paint0_radial)"/><rect x="1.688" y="1.688" width="23.625" height="23.625" rx="6" fill="url(#paint1_radial)"/><rect x="1.688" y="1.688" width="23.625" height="23.625" rx="6" fill="url(#paint2_radial)"/><path d="M19.406 8.86a1.266 1.266 0 11-2.531 0 1.266 1.266 0 012.531 0z" fill="#fff"/><path fill-rule="evenodd" clip-rule="evenodd" d="M13.5 17.719a4.219 4.219 0 100-8.438 4.219 4.219 0 000 8.438zm0-1.688a2.531 2.531 0 100-5.062 2.531 2.531 0 000 5.062z" fill="#fff"/><path fill-rule="evenodd" clip-rule="evenodd" d="M5.063 13.162c0-2.835 0-4.252.551-5.335a5.063 5.063 0 012.213-2.213c1.083-.551 2.5-.551 5.335-.551h.675c2.836 0 4.253 0 5.336.551a5.062 5.062 0 012.213 2.213c.552 1.083.552 2.5.552 5.335v.675c0 2.836 0 4.253-.552 5.336a5.062 5.062 0 01-2.213 2.213c-1.083.552-2.5.552-5.335.552h-.675c-2.836 0-4.253 0-5.336-.552a5.062 5.062 0 01-2.213-2.213c-.551-1.083-.551-2.5-.551-5.335v-.675zm8.1-6.412h.675c1.445 0 2.428.001 3.187.063.74.06 1.118.17 1.382.305a3.37 3.37 0 011.475 1.475c.135.264.244.642.305 1.382.062.76.063 1.742.063 3.188v.675c0 1.445-.001 2.428-.063 3.187-.06.74-.17 1.118-.305 1.382a3.374 3.374 0 01-1.475 1.475c-.264.135-.642.244-1.382.305-.76.062-1.742.063-3.187.063h-.675c-1.446 0-2.429-.001-3.188-.063-.74-.06-1.118-.17-1.382-.305a3.374 3.374 0 01-1.475-1.475c-.135-.264-.244-.642-.305-1.382-.062-.76-.063-1.742-.063-3.187v-.675c0-1.446.001-2.429.063-3.188.06-.74.17-1.118.305-1.382a3.375 3.375 0 011.475-1.475c.264-.135.642-.244 1.382-.305.76-.062 1.742-.063 3.188-.063z" fill="#fff"/><defs><radialGradient id="paint0_radial" cx="0" cy="0" r="1" gradientUnits="userSpaceOnUse" gradientTransform="rotate(-55.376 23.554 .056) scale(21.5322)"><stop stop-color="#B13589"/><stop offset=".793" stop-color="#C62F94"/><stop offset="1" stop-color="#8A3AC8"/></radialGradient><radialGradient id="paint1_radial" cx="0" cy="0" r="1" gradientUnits="userSpaceOnUse" gradientTransform="rotate(-65.136 25.115 5.813) scale(19.0639)"><stop stop-color="#E0E8B7"/><stop offset=".445" stop-color="#FB8A2E"/><stop offset=".715" stop-color="#E2425C"/><stop offset="1" stop-color="#E2425C" stop-opacity="0"/></radialGradient><radialGradient id="paint2_radial" cx="0" cy="0" r="1" gradientUnits="userSpaceOnUse" gradientTransform="rotate(-8.13 18.02 -1.702) scale(32.8142 7.01861)"><stop offset=".157" stop-color="#406ADC"/><stop offset=".468" stop-color="#6A45BE"/><stop offset="1" stop-color="#6A45BE" stop-opacity="0"/></radialGradient></defs></svg>