<svg width="27" height="27" fill="none" xmlns="http://www.w3.org/2000/svg"><rect x="1.688" y="1.688" width="23.625" height="23.625" rx="11.813" fill="#1275B1"/><path d="M10.647 8.178c0 .788-.684 1.427-1.527 1.427-.843 0-1.526-.639-1.526-1.427 0-.789.683-1.428 1.526-1.428s1.527.64 1.527 1.428zm-2.844 2.477h2.609v7.908h-2.61v-7.908zm6.81 0h-2.61v7.908h2.61v-4.046c0-.935.32-1.873 1.592-1.873 1.439 0 1.43 1.223 1.423 2.17-.009 1.238.012 2.501.012 3.748h2.61V14.39c-.022-2.665-.716-3.893-3.001-3.893-1.357 0-2.198.616-2.636 1.173v-1.014z" fill="#fff"/></svg>