<svg width="62" height="62" fill="none" xmlns="http://www.w3.org/2000/svg"><path d="M52.035 40.828H37.43A88.6 88.6 0 0131 49.725a88.616 88.616 0 01-6.428-8.898H9.965l-6.91 18.117h55.89l-6.91-18.117z" fill="#fff"/><path d="M31 3.056a14.875 14.875 0 00-14.875 14.876C16.038 32.124 31 49.726 31 49.726s14.963-17.602 14.876-31.794A14.876 14.876 0 0031 3.056zm0 21.187a6.312 6.312 0 110-12.623 6.312 6.312 0 010 12.623z" fill="#DACAA4"/><path d="M53.64 45.028l-27.89 9.92-10.87-14.12h9.693a88.517 88.517 0 006.428 8.898 88.531 88.531 0 006.427-8.898h14.61l1.603 4.2z" fill="#7B6C45"/><path d="M14.512 58.946l27.607-9.82 7.558 9.82H14.512z" fill="#525050"/></svg>