<svg width="36" height="46" fill="none" xmlns="http://www.w3.org/2000/svg"><path d="M0 0v46h36V13.434L22.168 0H0zm22 2l12 12H22V2zm-5.23 15.941c.605 0 1.136.254 1.496.72.761.991.71 3.015-.157 6.019.946 1.605 2.137 3.062 3.356 4.097 1.328-.273 2.469-.41 3.39-.41 2.79 0 3.094 1.395 3.094 1.996-.004 1.93-2.066 1.93-2.844 1.93-1.332 0-2.718-.512-4.12-1.527a42.953 42.953 0 00-6.36 2.074c-2.59 4.441-4.168 4.441-4.691 4.441-.32 0-.63-.074-.914-.222-.907-.473-1.02-1.164-1.004-1.528.02-.468.074-1.87 5.261-4.125a37.588 37.588 0 002.797-6.515c-.789-1.48-2.082-4.387-1.09-6.012.371-.602 1.004-.938 1.786-.938zm-.028 1.813a1.658 1.658 0 01-.117.047c-.148.133-.191.855.188 2.058.207-1.379.046-1.984-.07-2.105zm.66 7.281l-.043.152-.05-.082a42.641 42.641 0 01-1.329 3.149l.157-.067-.07.122a44.272 44.272 0 013.078-.97l-.051-.042.16-.035a18.729 18.729 0 01-1.852-2.227zm7.453 3.168c-.277 0-.582.02-.918.047a3.77 3.77 0 001.168.203c.497 0 .758-.039.895-.074-.117-.07-.441-.176-1.145-.176zm-13.789 4.422c-.515.332-.828.602-1 .785.2-.07.54-.293 1-.785z" fill="#9B8A60"/></svg>