<svg width="0" height="0" class="hidden">

  <symbol xmlns="http://www.w3.org/2000/svg" viewBox="0 0 23 16" id="arrow-prev">
    <path d="M.513 6.91L7.06.302a1.016 1.016 0 011.447 0c.4.404.4 1.057 0 1.46l-4.8 4.846H21.19c.565 0 1.023.462 1.023 1.033 0 .57-.458 1.032-1.023 1.032H3.706l4.8 4.845c.4.404.4 1.057 0 1.46a1.015 1.015 0 01-1.446 0L.513 8.372a1.04 1.04 0 010-1.46z"></path>
  </symbol>

  <symbol xmlns="http://www.w3.org/2000/svg" viewBox="0 0 56 56" id="play">
    <path d="M28 0C12.56 0 0 12.561 0 28s12.56 28 28 28 28-12.561 28-28S43.44 0 28 0zm11.131 28.981l-16.333 10.5a1.162 1.162 0 01-1.19.043A1.165 1.165 0 0121 38.5v-21a1.165 1.165 0 011.798-.981l16.333 10.5a1.169 1.169 0 010 1.962z"></path>
  </symbol>
</svg>