<svg width="27" height="27" fill="none" xmlns="http://www.w3.org/2000/svg"><path d="M1.894 8.388a3.279 3.279 0 013.122-3.061c2.42-.12 5.878-.264 8.484-.264s6.065.144 8.484.264a3.279 3.279 0 013.122 3.06c.104 1.6.206 3.569.206 5.113 0 1.544-.102 3.513-.206 5.112a3.279 3.279 0 01-3.122 3.061c-2.42.12-5.878.265-8.484.265s-6.065-.145-8.484-.265a3.279 3.279 0 01-3.122-3.06c-.104-1.6-.206-3.569-.206-5.113 0-1.544.102-3.513.206-5.112z" fill="#FC0D1B"/><path d="M10.969 10.125v6.75l6.75-3.375-6.75-3.375z" fill="#fff"/></svg>