<svg width="23" height="16" viewBox="0 0 23 16" fill="none" xmlns="http://www.w3.org/2000/svg">
<path d="M0.513468 6.9104L7.06031 0.302379C7.45975 -0.100793 8.10756 -0.100793 8.507 0.302379C8.90652 0.705634 8.90652 1.35933 8.507 1.76259L3.70644 6.608H21.1909C21.7558 6.608 22.2139 7.07032 22.2139 7.64051C22.2139 8.21062 21.7558 8.67301 21.1909 8.67301H3.70644L8.50683 13.5184C8.90635 13.9217 8.90635 14.5754 8.50683 14.9786C8.30715 15.1801 8.04528 15.281 7.78349 15.281C7.5217 15.281 7.2599 15.1801 7.06014 14.9786L0.513468 8.37061C0.113947 7.96736 0.113947 7.31366 0.513468 6.9104Z" fill="white"/>
</svg>
