<svg width="27" height="27" viewBox="0 0 27 27" fill="none" xmlns="http://www.w3.org/2000/svg">
<rect x="1.6875" y="1.6875" width="23.625" height="23.625" rx="11.8125" fill="#1275B1"/>
<path d="M10.6469 8.17775C10.6469 8.96628 9.96343 9.6055 9.12033 9.6055C8.27722 9.6055 7.59375 8.96628 7.59375 8.17775C7.59375 7.38923 8.27722 6.75 9.12033 6.75C9.96343 6.75 10.6469 7.38923 10.6469 8.17775Z" fill="white"/>
<path d="M7.80251 10.655H10.412V18.5625H7.80251V10.655Z" fill="white"/>
<path d="M14.6134 10.655H12.0039V18.5625H14.6134C14.6134 18.5625 14.6134 16.0731 14.6134 14.5166C14.6134 13.5824 14.9324 12.644 16.2052 12.644C17.6437 12.644 17.635 13.8666 17.6283 14.8138C17.6195 16.0519 17.6405 17.3153 17.6405 18.5625H20.25V14.3891C20.2279 11.7242 19.5335 10.4963 17.249 10.4963C15.8924 10.4963 15.0514 11.1122 14.6134 11.6695V10.655Z" fill="white"/>
</svg>
