<svg width="62" height="62" viewBox="0 0 62 62" fill="none" xmlns="http://www.w3.org/2000/svg">
<path d="M52.0352 40.8275H37.4288C35.4719 43.9236 33.325 46.8955 31.0002 49.7259C28.6755 46.8955 26.5285 43.9236 24.5716 40.8275H9.96527L3.05469 58.9455H58.9457L52.0352 40.8275Z" fill="white"/>
<path d="M31.0005 3.0564C27.0554 3.05652 23.272 4.62377 20.4824 7.41337C17.6927 10.203 16.1255 13.9865 16.1254 17.9316C16.0382 32.1237 31.0005 49.7259 31.0005 49.7259C31.0005 49.7259 45.9629 32.1237 45.8757 17.9316C45.8756 13.9865 44.3083 10.203 41.5187 7.41337C38.7291 4.62377 34.9456 3.05652 31.0005 3.0564ZM31.0005 24.243C29.7523 24.243 28.532 23.8728 27.4941 23.1793C26.4562 22.4858 25.6472 21.5001 25.1696 20.3468C24.6919 19.1936 24.5669 17.9246 24.8104 16.7003C25.0539 15.476 25.655 14.3514 26.5377 13.4687C27.4204 12.586 28.5449 11.9849 29.7692 11.7414C30.9935 11.4979 32.2625 11.6229 33.4158 12.1006C34.5691 12.5783 35.5548 13.3872 36.2483 14.4251C36.9418 15.463 37.3119 16.6833 37.3119 17.9316C37.3123 18.7605 37.1492 19.5813 36.8322 20.3472C36.5151 21.1131 36.0502 21.809 35.4641 22.3951C34.8779 22.9812 34.1821 23.4461 33.4162 23.7632C32.6503 24.0802 31.8294 24.2433 31.0005 24.243Z" fill="#DACAA4"/>
<path d="M53.6406 45.0275L25.7502 54.9475L14.8809 40.8279H24.5732C26.5296 43.924 28.6763 46.8957 31.0009 49.7259C33.3254 46.8957 35.4721 43.924 37.4285 40.8279H52.0373L53.6406 45.0275Z" fill="#7B6C45"/>
<path d="M14.5117 58.9455L42.1192 49.1253L49.6773 58.9455H14.5117Z" fill="#525050"/>
</svg>
