<svg width="36" height="46" viewBox="0 0 36 46" fill="none" xmlns="http://www.w3.org/2000/svg">
<path d="M0 0V46H36V13.4336L22.168 0H0ZM22 2L34 14H22V2ZM16.7695 17.9414C17.375 17.9414 17.9062 18.1953 18.2656 18.6602C19.0273 19.6523 18.9766 21.6758 18.1094 24.6797C19.0547 26.2852 20.2461 27.7422 21.4648 28.7773C22.793 28.5039 23.9336 28.3672 24.8555 28.3672C27.6445 28.3672 27.9492 29.7617 27.9492 30.3633C27.9453 32.293 25.8828 32.293 25.1055 32.293C23.7734 32.293 22.3867 31.7812 20.9844 30.7656C18.9414 31.25 16.6602 31.9922 14.625 32.8398C12.0352 37.2812 10.457 37.2812 9.93359 37.2812C9.61328 37.2812 9.30469 37.207 9.01953 37.0586C8.11328 36.5859 8 35.8945 8.01562 35.5312C8.03516 35.0625 8.08984 33.6602 13.2773 31.4062C14.3633 29.4375 15.3906 27.0547 16.0742 24.8906C15.2852 23.4102 13.9922 20.5039 14.9844 18.8789C15.3555 18.2773 15.9883 17.9414 16.7695 17.9414ZM16.7422 19.7539C16.6797 19.7812 16.6367 19.7969 16.625 19.8008C16.4766 19.9336 16.4336 20.6562 16.8125 21.8594C17.0195 20.4805 16.8594 19.875 16.7422 19.7539ZM17.4023 27.0352L17.3594 27.1875L17.3086 27.1055C16.9141 28.1602 16.4609 29.2305 15.9805 30.2539L16.1367 30.1875L16.0664 30.3086C17.0898 29.9453 18.1328 29.6172 19.1445 29.3398L19.0938 29.2969L19.2539 29.2617C18.6055 28.5977 17.9766 27.8438 17.4023 27.0352ZM24.8555 30.2031C24.5781 30.2031 24.2734 30.2227 23.9375 30.25C24.3438 30.3828 24.7344 30.4531 25.1055 30.4531C25.6016 30.4531 25.8633 30.4141 26 30.3789C25.8828 30.3086 25.5586 30.2031 24.8555 30.2031ZM11.0664 34.625C10.5508 34.957 10.2383 35.2266 10.0664 35.4102C10.2656 35.3398 10.6055 35.1172 11.0664 34.625Z" fill="#9B8A60"/>
</svg>
