<svg width="40" height="54" viewBox="0 0 40 54" fill="none" xmlns="http://www.w3.org/2000/svg">
<path d="M20.0001 0C9.21646 0 0.443359 8.7731 0.443359 19.5566C0.443359 32.9394 17.9447 52.586 18.6899 53.4158C19.3898 54.1953 20.6117 54.194 21.3104 53.4158C22.0555 52.586 39.5569 32.9394 39.5569 19.5566C39.5567 8.7731 30.7837 0 20.0001 0ZM20.0001 29.3961C14.5746 29.3961 10.1607 24.9822 10.1607 19.5566C10.1607 14.1311 14.5747 9.71726 20.0001 9.71726C25.4255 9.71726 29.8394 14.1312 29.8394 19.5568C29.8394 24.9823 25.4255 29.3961 20.0001 29.3961Z" fill="#9B8A60"/>
</svg>
