<svg width="27" height="27" viewBox="0 0 27 27" fill="none" xmlns="http://www.w3.org/2000/svg">
<path d="M1.8938 8.38781C2.00225 6.71822 3.34458 5.40976 5.01564 5.32697C7.43545 5.20709 10.8941 5.0625 13.5 5.0625C16.1059 5.0625 19.5646 5.20709 21.9844 5.32697C23.6554 5.40976 24.9977 6.71822 25.1062 8.38781C25.2101 9.98741 25.3125 11.9556 25.3125 13.5C25.3125 15.0444 25.2101 17.0126 25.1062 18.6122C24.9977 20.2818 23.6554 21.5902 21.9844 21.673C19.5646 21.7929 16.1059 21.9375 13.5 21.9375C10.8941 21.9375 7.43545 21.7929 5.01564 21.673C3.34458 21.5902 2.00225 20.2818 1.8938 18.6122C1.7899 17.0126 1.6875 15.0444 1.6875 13.5C1.6875 11.9556 1.7899 9.98741 1.8938 8.38781Z" fill="#FC0D1B"/>
<path d="M10.9688 10.125V16.875L17.7188 13.5L10.9688 10.125Z" fill="white"/>
</svg>
