<svg width="1440" height="414" fill="none" xmlns="http://www.w3.org/2000/svg"><path d="M437.099 351.829h-5.844a.547.547 0 110-1.093h5.844a.547.547 0 110 1.093zm2.031-2.906a.546.546 0 01-.548-.546v-5.831c0-.302.245-.546.548-.546.303 0 .548.244.548.546v5.831a.546.546 0 01-.548.546zm8.181 2.814h-5.843a.546.546 0 110-1.093h5.843a.547.547 0 110 1.093zm-7.935 8.721a.547.547 0 01-.548-.546v-5.83a.547.547 0 011.096 0v5.83a.546.546 0 01-.548.546zm-36.255 47.481h-3.489a.547.547 0 110-1.093h3.489a.547.547 0 110 1.093zm1.187-1.718a.546.546 0 01-.548-.546v-3.482a.546.546 0 011.095 0v3.482a.546.546 0 01-.547.546zm4.842 1.656h-3.489a.546.546 0 110-1.093h3.489a.547.547 0 110 1.093zm-4.719 5.204a.547.547 0 01-.548-.547v-3.48a.547.547 0 111.095 0v3.48a.546.546 0 01-.547.547zm-36.038-53.991h-2.845a.547.547 0 110-1.094h2.845a.548.548 0 110 1.094zm.969-1.407a.547.547 0 01-.548-.547v-2.839c0-.302.245-.546.548-.546.303 0 .548.244.548.546v2.839a.547.547 0 01-.548.547zm3.953 1.376h-2.845a.547.547 0 110-1.094h2.845a.547.547 0 110 1.094zm-3.83 4.252a.546.546 0 01-.547-.546v-2.838a.547.547 0 011.095 0v2.838a.546.546 0 01-.548.546zM1026.39 38.777h-5.84a.545.545 0 01-.55-.547c0-.302.24-.547.55-.547h5.84c.3 0 .55.245.55.547a.55.55 0 01-.55.547zm2.03-2.877c-.3 0-.54-.244-.54-.546v-5.83a.544.544 0 111.09 0v5.83c0 .302-.24.547-.55.547zm8.06 2.784h-5.84a.55.55 0 01-.55-.546.55.55 0 01.55-.547h5.84c.3 0 .55.245.55.547a.55.55 0 01-.55.546zm-7.81 8.721a.55.55 0 01-.55-.546v-5.83a.55.55 0 011.1 0v5.83a.55.55 0 01-.55.546zm35.36-41.113h-3.49a.55.55 0 01-.55-.547.55.55 0 01.55-.546h3.49c.3 0 .54.245.54.546 0 .302-.24.547-.54.547zm1.18-1.718c-.3 0-.54-.245-.54-.546V.547a.544.544 0 111.09 0v3.481c0 .301-.24.546-.55.546zm4.85 1.686h-3.49a.544.544 0 01-.55-.546c0-.301.24-.546.55-.546h3.49c.3 0 .54.245.54.546 0 .302-.24.547-.54.547zm-4.6 5.205a.55.55 0 01-.55-.547v-3.48a.55.55 0 011.1 0v3.48a.55.55 0 01-.55.547zm48.86 29.403h-2.84a.55.55 0 01-.55-.546.55.55 0 01.55-.547h2.84c.31 0 .55.245.55.547 0 .301-.24.546-.55.546zm.97-1.406c-.3 0-.54-.245-.54-.547v-2.838a.544.544 0 111.09 0v2.838c0 .302-.24.547-.55.547zm3.96 1.375h-2.85a.55.55 0 01-.55-.547.55.55 0 01.55-.546h2.85c.3 0 .54.244.54.546 0 .302-.24.547-.54.547zm-3.83 4.223a.545.545 0 01-.55-.547v-2.838a.544.544 0 111.09 0v2.838c0 .302-.24.547-.54.547z" fill="#fff"/><path d="M1440.27 271.753c-4.21 3.389-8.87 6.131-14.2 7.293-7.87 1.715-16.34-2.069-20.72-8.451-2.55-3.708-3.52-7.285-3.37-12.019.19-5.835 1.95-11.481 2.82-17.227 1.65-10.839 1.14-22.718-5.49-31.948-6.31-8.779-16.69-13.606-27.41-13.919-10.59-.31-20.86 4.387-28.31 11.751-8.06 7.966-12.36 18.568-13.42 29.725-1.1 11.509 1.98 22.678 6.4 33.19 4.2 10.001 9.73 19.947 11.29 30.822 1.55 10.833-2.15 22.458-6.03 32.457-6.93 17.815-22.38 35.207-43.05 34.121-8.72-.458-17.48-4.887-23.94-11.138-7.25-7.012-11.45-16.187-13.27-26.107-3.96-21.662 4.9-43.328 15.24-61.901 5.96-10.692 12.52-21.068 19.43-31.173 6.85-10.037 14.6-19.483 21.17-29.709 6.44-10.036 11.37-21.43 11.68-33.504.27-10.567-3.63-21.346-11.46-28.637-3.85-3.592-8.46-6.229-13.56-7.601-8.18-2.201-11.67 10.449-3.49 12.649 8.02 2.159 13.5 9.404 15.01 17.765 1.94 10.727-2.75 21.643-8.22 30.604-6.4 10.485-14.34 19.996-21.31 30.101-6.98 10.108-13.59 20.494-19.64 31.178-11.4 20.122-20.84 42.943-18.52 66.535 1.11 11.2 4.46 22.38 11.19 31.548 6.52 8.891 15.23 15.686 25.56 19.613 21.9 8.32 45.01-2.297 58.55-20.016 6.89-9.003 11.41-19.623 14.53-30.454 3.44-11.927 4.83-23.859 1.45-35.967-5.79-20.76-21.56-39.797-14.07-62.383 2.76-8.335 9.31-15.729 17.22-18.719 7.73-2.919 17.11-2.028 23.26 3.415 7.03 6.225 7.84 16.642 6.3 25.643-2.06 12.03-5.45 23.79.53 35.307 4.62 8.892 14.01 15.76 23.91 17.422 8.58 1.44 16.65-.628 23.94-4.628v-15.638z" fill="#353333"/><path d="M1241.77 155.963l42.57 20.647a8.77 8.77 0 0011.71-4.044l25.25-51.822c2.12-4.351.3-9.595-4.06-11.709l-42.55-20.64-32.92 67.568z" fill="#fff"/><path d="M1237.23 159.442l2.88 1.394c1.96.952 4.35.128 5.31-1.833l33.87-69.511a3.98 3.98 0 00-1.84-5.305l-2.88-1.394c-1.96-.952-4.35-.127-5.3 1.833l-33.87 69.511c-.96 1.964-.13 4.351 1.83 5.305z" fill="#575353"/><path d="M183.379 304.371c-4.231-10.765-11.74-19.14-21.766-24.902-9.166-5.268-19.497-8.33-28.317-14.222-8.311-5.552-12.884-14.68-12.765-25.197.129-11.347 5.359-22.087 12.52-30.854 3.862-4.73 8.176-9.061 12.654-13.208 6.213-5.758-3.1-15.017-9.297-9.276-18.184 16.845-34.548 40.364-27.377 66.381 3.175 11.519 11.254 20.09 21.514 25.846 9.24 5.183 19.579 8.282 28.354 14.314 15.478 10.64 19.55 33.797 7.287 48.903-3.46 4.263-8.062 6.912-13.609 7.116-5.755.211-11.217-.985-16.675-3.026-10.086-3.773-18.615-11.346-24.123-20.547-12.903-21.556-11.756-48.405-15.554-72.425-2.003-12.661-4.96-27.26-13.782-37.076-7.698-8.564-18.66-13.308-30.144-11.858-11.151 1.409-22.272 6.289-29.318 15.263-7.364 9.38-9.844 21.331-8.997 33.06.843 11.682 3.912 23.55 9.306 33.976 4.876 9.424 11.644 17.709 18.06 26.107 5.837 7.639 12.398 16.514 15.508 24.899 3.637 9.805 3.385 18.636-.998 28.534-4.255 9.606-11.464 19.263-19.597 25.349-8.575 6.416-19.473 8.306-29.978 8.346A90.283 90.283 0 010 399.671v13.081c7.727.486 15.485.103 23.12-1.508 11.683-2.466 21.572-8.475 29.66-17.164 8.266-8.882 15.128-19.78 18.229-31.581 3.01-11.46 1.232-22.628-3.528-33.312C58.88 309.881 41.658 295.915 33 276.63c-1.93-4.3-3.658-10.674-4.731-15.944-1.059-5.202-1.537-10.479-1.195-15.873.6-9.47 5.174-18.503 13.214-23.057 8.108-4.594 17.7-6.602 25.574-2.135 4.595 2.606 8.431 6.313 10.678 11.113 2.69 5.746 4.299 12.123 5.598 18.307 5.344 25.437 3.762 52.041 14.615 76.206 10.093 22.471 34.925 40.586 60.502 36.666 13.227-2.027 22.33-13.211 26.646-25.166 3.703-10.257 3.461-22.237-.523-32.376z" fill="#353333"/><path d="M201.959 125.282l-28.387 22.055a3.027 3.027 0 01-4.228-.525l-1.491-1.91a3.011 3.011 0 01.526-4.219l28.387-22.055a3.025 3.025 0 014.228.525l1.491 1.91a3.011 3.011 0 01-.526 4.219zm27.931 35.683l-28.386 22.055a3.027 3.027 0 01-4.229-.525l-1.49-1.91a3.01 3.01 0 01.526-4.219l28.387-22.054a3.026 3.026 0 014.228.524l1.49 1.91a3.01 3.01 0 01-.526 4.219z" fill="#9B8A60"/><path d="M204.619 194.807l-37.34 29.011c-3.819 2.967-9.327 2.284-12.301-1.527l-35.495-45.476c-2.975-3.81-2.289-9.305 1.53-12.273l37.34-29.011 46.266 59.276z" fill="#fff"/><path d="M209.726 197.266l-2.524 1.96a3.99 3.99 0 01-5.574-.692l-47.601-60.986a3.969 3.969 0 01.693-5.561l2.523-1.961a3.99 3.99 0 015.574.692l47.602 60.986a3.97 3.97 0 01-.693 5.562z" fill="#575353"/></svg>